<?xml version="1.0" encoding="utf-8"?>
<!-- Generator: Adobe Illustrator 21.0.2, SVG Export Plug-In . SVG Version: 6.00 Build 0)  -->
<svg version="1.1" id="Camada_1" xmlns="http://www.w3.org/2000/svg" xmlns:xlink="http://www.w3.org/1999/xlink" x="0px" y="0px"
	 viewBox="0 0 50.7 68.6" style="enable-background:new 0 0 50.7 68.6;" xml:space="preserve">
<style type="text/css">
	.st0{fill:#FFFFFF;}
</style>
<g>
	<g>
		<path class="st0" d="M25.3,13.7c11.3,0.1,21.3,7.9,23.7,18.6c2.7,12-4.2,24-16.2,27.8C19.5,64.4,5.2,56.6,1.8,43.3
			c-3.2-12.6,4.8-25.6,17.7-28.6C21.4,14.2,23.4,14,25.3,13.7z M25.4,58.3c1.8-0.3,3.6-0.4,5.4-0.9C41.6,54.7,48.5,43.8,46,33.3
			c-3-12.8-16.8-19.7-29-14.6c-8.8,3.8-14.1,13-12.5,22C6.3,50.9,15,58.2,25.4,58.3z"/>
		<path class="st0" d="M1.3,67.9c0-1,0-1.9,0-2.9c16,0,32,0,48,0c0,1,0,1.9,0,2.9C33.4,67.9,17.4,67.9,1.3,67.9z"/>
		<path class="st0" d="M33.7,9.9c-0.6,0-1.1,0-1.7,0c0-2.2,0-4.3,0-6.5c0.6,0.2,1.5-0.6,1.7,0.6c1.6-1.1,2.6-1.1,3.8,0.2
			C38.1,3.4,38.9,3,40,3.2c1,0.2,1.5,0.8,1.6,1.8c0,0.5,0,1.1,0,1.6c0,1.1,0,2.1,0,3.3c-0.6,0-1.2,0-1.8,0c0-1.3,0-2.5,0-3.8
			c0-0.7,0-1.4-1-1.4c-0.9,0-1.2,0.6-1.2,1.4c0,1.2,0,2.5,0,3.7c-1.6,0.4-1.8,0.3-1.8-1.2c0-0.9,0-1.9,0-2.8c0-0.7-0.3-1.1-1-1.1
			c-0.8,0-1.1,0.4-1.1,1.1c0,1,0,2,0,3C33.7,9.1,33.7,9.5,33.7,9.9z"/>
		<path class="st0" d="M8.3,3.6C7.5,3.6,6.7,3.9,6.2,2.8C5.8,2.1,4,2.1,3.4,2.6C2.8,3.1,2.9,3.9,3.7,4.2c0.9,0.3,1.8,0.5,2.7,0.7
			C8.1,5.3,8.7,6,8.6,7.5c-0.1,1.3-1,2.4-2.6,2.5C5,10.1,3.9,10,2.9,9.8C1.8,9.5,1.2,8.6,1.1,7.3C1.9,7.2,2.7,6.8,3.2,8
			c0.4,0.9,2.6,0.9,3.3,0.2c0.5-0.5,0.4-1.3-0.4-1.5C5.1,6.3,4.1,6.1,3,5.8c-1.4-0.4-2-1.3-1.8-2.8c0-0.1,0-0.3,0.1-0.4
			c0.5-1.4,2.1-2.2,4.1-1.9C7.2,1,8.2,2,8.3,3.6z"/>
		<path class="st0" d="M31,7.1c-1.6,0-3.2,0-5.2,0c0.4,0.6,0.7,1.3,1,1.4c0.6,0.2,1.3,0.1,1.9,0c0.7-0.1,1.3-0.4,2.2-0.6
			c-0.5,1.9-2.2,2.6-4.1,2.2c-1.8-0.4-2.8-2-2.4-4.1C24.6,4.1,26.1,3,28,3.1C30,3.3,31.1,4.7,31,7.1z M26.2,5.9c1,0,2,0,3,0
			C29,5,28.5,4.6,27.8,4.6C26.9,4.5,26.3,4.9,26.2,5.9z"/>
		<path class="st0" d="M43.1,5.4c0-1.2,0.6-1.8,1.5-2.1c0.4-0.1,0.9-0.2,1.4-0.2c2.2,0,2.8,0.7,2.8,2.9c0,1.3,0,2.5,0,4
			c-0.5-0.1-1.2-0.2-2-0.4c-0.7,0.1-1.5,0.4-2.4,0.4c-0.9,0-1.5-0.6-1.6-1.6c-0.1-1,0.3-1.8,1.2-2.2c0.6-0.2,1.2-0.2,1.8-0.4
			c0.4-0.1,0.8-0.4,1.2-0.6c-0.1-0.2-0.3-0.6-0.4-0.6c-0.5,0-1.4-0.1-1.5,0.2C44.5,5.7,43.9,5.4,43.1,5.4z M47,6.8
			C46.4,7,45.8,7,45.3,7.2c-0.3,0.2-0.5,0.7-0.7,1.1c0.4,0.2,0.7,0.5,1.1,0.5C46.7,8.8,47.1,8.2,47,6.8z"/>
		<path class="st0" d="M13.1,7.9c0.7,0,1.6-0.4,2,0.6c0.1,0.2,0.5,0.3,0.7,0.3c0.5-0.1,1-0.3,1.5-0.5C17,8,16.6,7.7,16.2,7.5
			c-0.7-0.3-1.4-0.4-2.1-0.7c-0.8-0.3-1-1-0.9-1.8c0.2-1.2,1.3-1.9,2.9-1.9c1.7,0,2.6,0.7,2.8,2.1c-0.7,0.1-1.4,0.4-2-0.5
			c-0.1-0.2-0.7-0.3-1-0.3C15.6,4.5,15.3,4.8,15,5c0.3,0.2,0.5,0.5,0.8,0.6c0.7,0.3,1.6,0.4,2.3,0.7c1.4,0.6,1.6,2.4,0.3,3.3
			c-1,0.7-3.5,0.8-4.4,0c-0.4-0.4-0.7-1-1-1.4C13,8,13.1,8,13.1,7.9z"/>
		<path class="st0" d="M23.6,10c-0.5,0-0.9,0-1.4,0c-1-0.1-1.4-0.4-1.4-1.5c0-1.2,0-2.5,0-3.8c-0.3-0.1-0.6-0.2-0.9-0.3
			c0-0.3,0-0.6,0-1c1.4-0.1,0.7-1.2,1-1.9c0.5,0,1,0,1.6,0c0,0.6,0.1,1.1,0.1,1.7c0.3,0.1,0.7,0.1,1,0.2c0,0.3,0,0.7,0,1
			c-0.3,0.1-0.7,0.1-1.1,0.2c0,1.1-0.1,2.3,0,3.4c0,0.3,0.6,0.6,1,0.8c0,0.2,0,0.4,0,0.6C23.7,9.6,23.6,9.7,23.6,10z"/>
		<path class="st0" d="M10.1,3.4c0.5,0,1,0,1.6,0c0,2.1,0,4.1-0.1,6.1c0,0.2-0.9,0.4-1.6,0.7C10.1,7.7,10.1,5.6,10.1,3.4z"/>
		<path class="st0" d="M11.6,2.5c-0.6,0-1.1,0-1.6,0c0-0.5,0-1,0-1.5c0.5,0,1,0,1.6,0C11.6,1.5,11.6,2,11.6,2.5z"/>
		<path class="st0" d="M31.9,36.7c0.3,0.1,0.5,0.2,0.7,0.3c5.4,2,5,8.8,1.3,11.7c-1.4,1.1-3,1.5-4.7,1.8c-0.6,0.1-1.3,0.1-1.9,0.1
			c-3.7,0-7.3,0-11.1,0c0-8.5,0-17,0-25.6c0.3,0,0.6,0,0.9,0c3.5,0,7.1-0.1,10.6,0c1.2,0,2.5,0.2,3.7,0.6c2.4,0.9,3.7,2.7,3.9,5.3
			c0.2,2.4-0.7,4.3-2.8,5.5C32.3,36.4,32.2,36.5,31.9,36.7z M19.7,47.5c3,0,5.9,0,8.8,0c0.7,0,1.4-0.3,2.1-0.6
			c1.7-0.8,2.5-2.4,2.4-4.5c-0.1-1.7-1.1-2.9-2.9-3.5c-0.8-0.2-1.7-0.4-2.6-0.4c-2.6-0.1-5.1,0-7.7,0C19.7,41.6,19.7,44.5,19.7,47.5
			z M19.7,27.7c0,2.8,0,5.4,0,8.1c2.1,0,4.2,0,6.3,0c0.9,0,1.9-0.1,2.7-0.3c2-0.5,3-1.8,3-3.8c0-2-1-3.4-3.1-3.6
			C25.7,27.7,22.8,27.8,19.7,27.7z"/>
	</g>
</g>
</svg>
