<?xml version="1.0" encoding="utf-8"?>
<!-- Generator: Adobe Illustrator 21.0.2, SVG Export Plug-In . SVG Version: 6.00 Build 0)  -->
<svg version="1.1" id="Camada_1" xmlns="http://www.w3.org/2000/svg" xmlns:xlink="http://www.w3.org/1999/xlink" x="0px" y="0px"
	 viewBox="0 0 24 24" style="enable-background:new 0 0 24 24;" xml:space="preserve">
<style type="text/css">
	.st0{fill:#FFFFFF;}
</style>
<g>
	<g>
		<g>
			<g>
				<path class="st0" d="M16.1,1H7.9C4.1,1,1,4.1,1,7.9v8.2C1,19.9,4.1,23,7.9,23h8.2c3.8,0,6.9-3.1,6.9-6.9V7.9
					C23,4.1,19.9,1,16.1,1z M20.9,16.1c0,2.6-2.2,4.8-4.8,4.8H7.9c-2.6,0-4.8-2.2-4.8-4.8V7.9c0-2.6,2.2-4.8,4.8-4.8h8.2
					c2.6,0,4.8,2.2,4.8,4.8V16.1z"/>
			</g>
		</g>
		<g>
			<g>
				<path class="st0" d="M12,6.5C9,6.5,6.5,9,6.5,12S9,17.5,12,17.5s5.5-2.5,5.5-5.5S15,6.5,12,6.5z M12,15.4
					c-1.9,0-3.4-1.5-3.4-3.4c0-1.9,1.5-3.4,3.4-3.4s3.4,1.5,3.4,3.4C15.4,13.9,13.9,15.4,12,15.4z"/>
			</g>
		</g>
		<g>
			<g>
				<circle class="st0" cx="17.9" cy="6.1" r="0.7"/>
			</g>
		</g>
	</g>
</g>
</svg>
