<?xml version="1.0" encoding="utf-8"?>
<!-- Generator: Adobe Illustrator 21.0.2, SVG Export Plug-In . SVG Version: 6.00 Build 0)  -->
<svg version="1.1" id="Camada_1" xmlns="http://www.w3.org/2000/svg" xmlns:xlink="http://www.w3.org/1999/xlink" x="0px" y="0px"
	 viewBox="0 0 21.3 20.9" style="enable-background:new 0 0 21.3 20.9;" xml:space="preserve">
<style type="text/css">
	.st0{fill:#C6C7C8;}
</style>
<g>
	<g>
		<g>
			<path class="st0" d="M14.3,0.6H7c-3.4,0-6.1,2.7-6.1,6.1v7.4c0,3.4,2.7,6.1,6.1,6.1h7.4c3.4,0,6.1-2.7,6.1-6.1V6.8
				C20.5,3.4,17.7,0.6,14.3,0.6z M18.6,14.1c0,2.4-1.9,4.3-4.3,4.3H7c-2.4,0-4.3-1.9-4.3-4.3V6.8c0-2.4,1.9-4.3,4.3-4.3h7.4
				c2.4,0,4.3,1.9,4.3,4.3V14.1z"/>
		</g>
	</g>
	<g>
		<g>
			<path class="st0" d="M10.7,5.5c-2.7,0-4.9,2.2-4.9,4.9s2.2,4.9,4.9,4.9s4.9-2.2,4.9-4.9S13.4,5.5,10.7,5.5z M10.7,13.5
				c-1.7,0-3.1-1.4-3.1-3.1c0-1.7,1.4-3.1,3.1-3.1s3.1,1.4,3.1,3.1C13.7,12.1,12.4,13.5,10.7,13.5z"/>
		</g>
	</g>
	<g>
		<g>
			<circle class="st0" cx="15.9" cy="5.2" r="0.7"/>
		</g>
	</g>
</g>
</svg>
