<?xml version="1.0" encoding="utf-8"?>
<!-- Generator: Adobe Illustrator 21.0.2, SVG Export Plug-In . SVG Version: 6.00 Build 0)  -->
<svg version="1.1" id="Camada_1" xmlns="http://www.w3.org/2000/svg" xmlns:xlink="http://www.w3.org/1999/xlink" x="0px" y="0px"
	 viewBox="0 0 70.9 70.3" style="enable-background:new 0 0 70.9 70.3;" xml:space="preserve">
<style type="text/css">
	.st0{fill-rule:evenodd;clip-rule:evenodd;fill:#C22821;}
	.st1{fill-rule:evenodd;clip-rule:evenodd;fill:#FEFEFE;}
</style>
<g>
	
		<rect x="11.3" y="11" transform="matrix(0.7071 -0.7071 0.7071 0.7071 -14.4592 35.3424)" class="st0" width="48.2" height="48.2"/>
	<path class="st1" d="M12.5,43.6h5.3l0.1-2h-1.3l0.1-1.3l1.5-1.2l2.6,4.6h3.2l0.2-2.1h-1.7l-2.3-3.9l2.5-2h1.9l0.2-2.1h-6l-0.1,2
		h1.4L16.9,38l0.8-11.4h-4l-0.2,2.1h1.5l-0.9,12.7h-1.5L12.5,43.6L12.5,43.6z M35.5,39.4c0-0.2,0.1-0.4,0.1-0.6
		c0-0.2,0.1-0.4,0.1-0.6c0-0.7,0-1.3-0.2-1.9c-0.2-0.6-0.4-1.1-0.8-1.5c-0.4-0.4-0.9-0.8-1.5-1c-0.6-0.3-1.3-0.4-2.1-0.4
		c-0.8,0-1.5,0.1-2.2,0.4c-0.6,0.3-1.2,0.7-1.7,1.1c-0.5,0.5-0.9,1-1.2,1.7c-0.3,0.6-0.5,1.3-0.5,2c-0.1,0.8,0,1.5,0.3,2.1
		c0.2,0.6,0.6,1.2,1,1.7c0.5,0.5,1,0.8,1.7,1.1c0.7,0.2,1.4,0.4,2.2,0.4c0.7,0,1.4-0.1,2.1-0.2c0.7-0.2,1.3-0.4,1.8-0.7l0.4-2.3
		c-0.6,0.3-1.2,0.6-1.9,0.8c-0.6,0.2-1.3,0.3-1.9,0.3c-0.6,0-1.1-0.1-1.5-0.2c-0.4-0.2-0.8-0.4-1.1-0.7c-0.3-0.3-0.5-0.8-0.5-1.3
		H35.5L35.5,39.4z M31,35.3c0.5,0,0.9,0.1,1.3,0.3c0.3,0.2,0.6,0.5,0.8,0.8c0.2,0.3,0.2,0.8,0.2,1.2h-4.9c0.1-0.6,0.3-1,0.6-1.3
		c0.3-0.3,0.6-0.6,0.9-0.7C30.3,35.4,30.6,35.3,31,35.3L31,35.3z M40.2,31.9c0.3,0,0.6-0.1,0.9-0.2c0.3-0.1,0.5-0.3,0.7-0.6
		c0.2-0.3,0.3-0.5,0.3-0.8c0-0.3,0-0.6-0.2-0.8c-0.1-0.3-0.3-0.4-0.6-0.6c-0.2-0.2-0.5-0.2-0.8-0.2c-0.3,0-0.6,0.1-0.9,0.2
		c-0.3,0.1-0.5,0.3-0.7,0.6c-0.2,0.3-0.3,0.5-0.3,0.8c0,0.3,0,0.6,0.2,0.8c0.1,0.2,0.3,0.4,0.6,0.6C39.6,31.8,39.9,31.9,40.2,31.9
		L40.2,31.9z M36.8,43.6h5.6l0.2-2.1H41l0.6-8.1h-4.1l-0.2,2.1h1.6l-0.4,5.9H37L36.8,43.6L36.8,43.6z M51.5,29.6
		c0.2,0,0.5-0.1,0.7-0.2c0.2-0.1,0.4-0.3,0.5-0.5c0.1-0.2,0.2-0.5,0.2-0.8c0-0.3-0.1-0.6-0.2-0.9c-0.2-0.3-0.4-0.5-0.7-0.6
		c-0.3-0.1-0.7-0.2-1.2-0.2c-0.6,0-1.1,0.1-1.6,0.3c-0.5,0.2-0.9,0.4-1.3,0.8c-0.3,0.3-0.6,0.7-0.8,1c-0.2,0.4-0.4,0.8-0.5,1.3
		c-0.1,0.5-0.2,1-0.2,1.6l-0.1,2h-1.7l-0.2,2.1h1.7l-0.4,5.9h-1.5L44,43.6h6l0.2-2.1h-2l0.4-5.9h2.6l0.2-2.1h-2.6l0.2-2.3
		c0-0.5,0.1-0.9,0.2-1.2c0.1-0.3,0.2-0.6,0.4-0.8c0.1-0.1,0.1-0.2,0.2-0.2c0.1-0.1,0.2-0.1,0.3-0.2c0.1,0.3,0.3,0.5,0.5,0.7
		C50.8,29.5,51.1,29.6,51.5,29.6z"/>
	<path class="st1" d="M57.5,29.6c0.2,0,0.5-0.1,0.7-0.2c0.2-0.1,0.4-0.3,0.5-0.5c0.1-0.2,0.2-0.5,0.2-0.8c0-0.3-0.1-0.6-0.2-0.9
		c-0.2-0.3-0.4-0.5-0.7-0.6s-0.7-0.2-1.2-0.2c-0.6,0-1.1,0.1-1.6,0.3c-0.5,0.2-0.9,0.4-1.3,0.8c-0.3,0.3-0.6,0.7-0.8,1
		c-0.2,0.4-0.4,0.8-0.5,1.3c-0.1,0.5-0.2,1-0.2,1.6l-0.1,2h-1.7l-0.2,2.1h1.7l-0.4,5.9h-1.5L50,43.6h6l0.2-2.1h-2l0.4-5.9h2.6
		l0.2-2.1h-2.6l0.2-2.3c0-0.5,0.1-0.9,0.2-1.2c0.1-0.3,0.2-0.6,0.4-0.8c0.1-0.1,0.1-0.2,0.2-0.2c0.1-0.1,0.2-0.1,0.3-0.2
		c0.1,0.3,0.3,0.5,0.5,0.7C56.8,29.5,57.1,29.6,57.5,29.6z"/>
</g>
</svg>
