<?xml version="1.0" encoding="utf-8"?>
<!-- Generator: Adobe Illustrator 21.0.2, SVG Export Plug-In . SVG Version: 6.00 Build 0)  -->
<svg version="1.1" id="Camada_1" xmlns="http://www.w3.org/2000/svg" xmlns:xlink="http://www.w3.org/1999/xlink" x="0px" y="0px"
	 viewBox="0 0 109 108" style="enable-background:new 0 0 109 108;" xml:space="preserve">
<style type="text/css">
	.st0{fill:#FFFFFF;}
</style>
<g>
	<polygon class="st0" points="75,54.7 74.3,63.9 77.3,63.9 77.3,63.9 79.7,63.9 80.3,54.7 79.1,54.7 79.1,54.7 	"/>
	<path class="st0" d="M49.6,54.7c-0.5-0.3-1.2-0.4-1.9-0.4c-0.6,0-1.1,0.1-1.7,0.4c-0.6,0.2-1,0.6-1.5,1.2c-0.4,0.5-0.8,1.2-1,2.1
		h7.6c0-0.7-0.1-1.4-0.4-1.9C50.5,55.5,50.1,55,49.6,54.7z"/>
	<path class="st0" d="M54.5,1.1L1.6,54l52.9,52.9L107.4,54L54.5,1.1z M60,45.1c0.3-0.4,0.6-0.7,1-0.9c0.4-0.2,0.9-0.3,1.3-0.4
		c0.5,0,0.9,0.1,1.3,0.4c0.4,0.2,0.7,0.5,0.9,0.9s0.3,0.8,0.3,1.3c0,0.5-0.2,0.9-0.5,1.3c-0.3,0.4-0.6,0.7-1,0.9
		c-0.4,0.2-0.9,0.3-1.3,0.4c-0.5,0-0.9-0.1-1.3-0.4c-0.4-0.2-0.7-0.5-0.9-0.9c-0.2-0.4-0.3-0.8-0.3-1.3C59.5,45.9,59.7,45.5,60,45.1
		z M37.8,54.7h-2.9L31,57.8l3.5,6h2.6l-0.2,3.3H32l-4-7.1L25.6,62l-0.1,2h2l-0.2,3.2h-8.2l0.2-3.2h2.3l1.4-19.7h-2.3l0.2-3.3h6.2
		l-1.3,17.6l4.9-3.9h-2.2l0.2-3.1H38L37.8,54.7z M55,58.7c0,0.3-0.1,0.6-0.1,1c-0.1,0.4-0.1,0.7-0.2,0.9H43.3c0.1,0.8,0.4,1.5,0.9,2
		c0.4,0.5,1,0.9,1.7,1.1c0.7,0.3,1.5,0.4,2.4,0.4c1,0,1.9-0.1,2.9-0.4c1-0.3,2-0.7,2.9-1.2L53.5,66c-0.9,0.5-1.8,0.8-2.8,1.1
		c-1,0.2-2.1,0.4-3.2,0.4c-1.3,0-2.4-0.2-3.5-0.6c-1-0.4-1.9-0.9-2.6-1.6c-0.7-0.7-1.2-1.6-1.6-2.6c-0.3-1-0.5-2.1-0.4-3.3
		c0.1-1.1,0.4-2.2,0.8-3.2c0.4-1,1-1.8,1.8-2.6c0.8-0.8,1.6-1.3,2.6-1.8c1-0.4,2.1-0.6,3.3-0.7c1.3,0,2.3,0.2,3.3,0.6
		c0.9,0.4,1.7,0.9,2.3,1.6s1,1.5,1.3,2.4C55,56.6,55.1,57.6,55,58.7z M65.3,67.1h-8.6l0.2-3.2h2.4l0.7-9.2h-2.4l0.2-3.3h6.3
		l-0.9,12.5h2.3L65.3,67.1z M89.7,45.2c-0.3,0.2-0.7,0.3-1.1,0.3c-0.6,0-1.1-0.2-1.4-0.4c-0.3-0.3-0.6-0.6-0.8-1
		c-0.2,0.1-0.3,0.2-0.5,0.3c-0.2,0.1-0.3,0.2-0.4,0.4c-0.3,0.3-0.5,0.8-0.6,1.3c-0.2,0.5-0.3,1.1-0.3,1.9l-0.3,3.6h4.1l-0.2,3.3
		h-4.1l-0.7,9.2h3l-0.2,3.2h-9.2l0,0h-9.3l0.2-3.2h2.4l0.7-9.2h-2.7l0.2-3.3h2.7l0.2-3c0.1-1,0.2-1.8,0.4-2.5c0.2-0.7,0.4-1.4,0.8-2
		c0.3-0.6,0.8-1.1,1.3-1.6c0.6-0.5,1.3-1,2-1.2c0.7-0.3,1.5-0.4,2.4-0.4c0.7,0,1.3,0.1,1.8,0.3c0.5,0.2,0.9,0.5,1.2,0.9
		c0.3,0.4,0.4,0.9,0.3,1.4c0,0.5-0.2,0.9-0.4,1.2c-0.2,0.3-0.5,0.6-0.8,0.8c-0.3,0.2-0.7,0.3-1.1,0.3c-0.6,0-1.1-0.2-1.4-0.4
		c-0.3-0.3-0.6-0.6-0.8-1c-0.2,0.1-0.3,0.2-0.5,0.3c-0.2,0.1-0.3,0.2-0.4,0.4c-0.3,0.3-0.5,0.8-0.6,1.3c-0.2,0.5-0.3,1.1-0.3,1.9
		l-0.3,3.6h2.7l0,0h2.7l0.2-3c0.1-1,0.2-1.8,0.4-2.5s0.4-1.4,0.8-2c0.3-0.6,0.8-1.1,1.3-1.6c0.6-0.5,1.3-1,2-1.2
		c0.7-0.3,1.5-0.4,2.4-0.4c0.7,0,1.3,0.1,1.8,0.3s0.9,0.5,1.2,0.9c0.3,0.4,0.4,0.9,0.3,1.4c0,0.5-0.2,0.9-0.4,1.2
		C90.4,44.7,90.1,45,89.7,45.2z"/>
</g>
</svg>
