<?xml version="1.0" encoding="utf-8"?>
<!-- Generator: Adobe Illustrator 21.0.2, SVG Export Plug-In . SVG Version: 6.00 Build 0)  -->
<svg version="1.1" id="Camada_1" xmlns="http://www.w3.org/2000/svg" xmlns:xlink="http://www.w3.org/1999/xlink" x="0px" y="0px"
	 viewBox="0 0 1257 222" style="enable-background:new 0 0 1257 222;" xml:space="preserve">
<style type="text/css">
	.st0{fill-rule:evenodd;clip-rule:evenodd;fill:#FFFFFF;}
	.st1{fill-rule:evenodd;clip-rule:evenodd;fill:#E4CAC5;}
	.st2{fill-rule:evenodd;clip-rule:evenodd;fill:#BB4757;}
	.st3{fill-rule:evenodd;clip-rule:evenodd;fill:#D26275;}
	.st4{fill-rule:evenodd;clip-rule:evenodd;fill:#D38D8C;}
</style>
<g>
	<polygon class="st0" points="1311.7,49.4 1281.7,19.4 1254.9,46.2 1223.9,15.2 1192.4,46.6 1178,32.2 1158.6,51.6 1129.1,22.2 
		1099.4,51.9 1077.3,29.9 1073.5,33.7 1060,20.2 1040.1,40.1 1020.2,20.2 987.8,55.9 954.2,19.4 927.3,46.2 881.2,0.2 842,39.3 
		822.1,19.4 795.3,46.2 764.3,15.2 732.8,46.6 718.4,32.2 698.8,51.8 697.4,50.4 689.8,42.8 671.9,60.7 636.8,25.5 614.1,48.2 
		597.6,31.6 589.7,39.5 569.7,19.4 542.8,46.2 496.7,0.2 457.5,39.3 437.6,19.4 410.8,46.2 379.8,15.2 348.3,46.6 333.9,32.2 
		314.5,51.6 285,22.2 255.3,51.9 233.3,29.9 229.4,33.7 215.9,20.2 196,40.1 176.1,20.2 144,53.4 110.1,19.4 83.2,46.2 82.1,45.1 
		37.1,0.2 -2,39.3 -22,19.4 -58.9,56.3 -58.9,234.3 1310.2,234.3 	"/>
	<polygon class="st1" points="702.3,78.4 688,92.7 673.6,78.4 	"/>
	
		<rect x="689.6" y="87.3" transform="matrix(0.7071 -0.7071 0.7071 0.7071 136.6704 529.472)" class="st1" width="35.7" height="24.9"/>
	
		<rect x="543.4" y="87.3" transform="matrix(0.7071 -0.7071 0.7071 0.7071 93.8409 426.0703)" class="st1" width="35.7" height="24.9"/>
	
		<rect x="697.3" y="178.5" transform="matrix(0.7071 -0.7071 0.7071 0.7071 74.4533 561.5671)" class="st1" width="35.7" height="24.9"/>
	<polygon class="st2" points="638.2,102.1 661.9,78.4 614.4,78.4 	"/>
	<polygon class="st2" points="716.3,142.5 681.7,107.9 647.1,142.5 	"/>
	<polygon class="st2" points="570.1,142.5 535.5,107.9 500.9,142.5 	"/>
	<polygon class="st2" points="689.8,56.9 674.7,72 704.9,72 690.4,57.5 	"/>
	<polygon class="st2" points="623.8,72 597.6,45.8 571.4,72 	"/>
	<polygon class="st2" points="560,148.2 594.6,182.8 629.2,148.2 	"/>
	<polygon class="st2" points="706.2,148.2 740.8,182.8 775.4,148.2 	"/>
	<polygon class="st3" points="592.7,97 638.2,142.5 683.6,97 667.8,81.1 638.2,110.7 608.6,81.1 	"/>
	<polygon class="st4" points="574,78.4 588.3,92.7 602.7,78.4 	"/>
	<polygon class="st4" points="733.2,100.3 708,125.5 725,142.5 775.4,142.5 	"/>
	<polygon class="st4" points="629.2,142.5 587,100.3 561.7,125.5 578.7,142.5 	"/>
	<polygon class="st4" points="669.1,72 636.8,39.7 617.4,59 630.5,72 	"/>
	<polygon class="st4" points="543.1,190.4 568.4,165.2 551.4,148.2 500.9,148.2 	"/>
	<polygon class="st4" points="647.1,148.2 689.4,190.4 714.6,165.2 697.6,148.2 	"/>
	<polygon class="st3" points="922.3,55.4 881.2,14.3 840.2,55.4 854.5,69.7 881.2,43 908,69.7 	"/>
	<polygon class="st3" points="793.5,58.6 764.3,29.3 735,58.6 744.5,68.1 764.3,48.3 784.1,68.1 	"/>
	<polygon class="st3" points="804.2,132 888.2,132 877.8,142.5 793.7,142.5 	"/>
	<polygon class="st3" points="880.1,112.9 850.7,83.5 821.2,112.9 830.8,122.4 850.7,102.5 870.6,122.4 	"/>
	<polygon class="st3" points="968.5,101.4 1009.5,142.5 1050.6,101.4 1036.3,87.1 1009.5,113.8 982.8,87.1 	"/>
	<polygon class="st3" points="1097.2,98.2 1126.5,127.5 1155.8,98.2 1146.3,88.7 1126.5,108.5 1106.7,88.7 	"/>
	<polygon class="st3" points="1235.1,142.5 1141.6,142.5 1131.1,132 1224.7,132 	"/>
	<polygon class="st3" points="1010.7,43.9 1040.1,73.3 1069.5,43.9 1060,34.3 1040.1,54.2 1020.2,34.3 	"/>
	<polygon class="st3" points="1253.1,58.6 1223.9,29.3 1194.6,58.6 1204.1,68.1 1223.9,48.3 1243.6,68.1 	"/>
	<polygon class="st3" points="1263.8,132 1347.8,132 1337.3,142.5 1253.3,142.5 	"/>
	<polygon class="st3" points="1339.7,112.9 1310.2,83.5 1280.8,112.9 1290.4,122.4 1310.2,102.5 1330.1,122.4 	"/>
	<polygon class="st4" points="939.2,72.2 926.2,59.3 913.3,72.2 	"/>
	<polygon class="st4" points="807.1,72.2 797.6,62.6 788,72.2 	"/>
	<polygon class="st4" points="719.1,77.9 761.6,120.5 787,95.1 769.9,77.9 	"/>
	<polygon class="st4" points="853.3,77.9 882.5,107.2 899.9,89.7 888.2,77.9 	"/>
	<polygon class="st4" points="893.8,126.6 884.1,117 874.5,126.6 	"/>
	<polygon class="st4" points="951.6,84.6 964.5,97.5 977.5,84.6 	"/>
	<polygon class="st4" points="1083.6,84.6 1093.2,94.2 1102.8,84.6 	"/>
	<polygon class="st4" points="1133.5,142.5 1095.3,104.4 1072.6,127.1 1087.9,142.5 	"/>
	<polygon class="st4" points="1001.4,142.5 963.3,104.4 940.5,127.1 955.9,142.5 	"/>
	<polygon class="st4" points="1219.2,126.5 1191.6,99 1176.3,114.3 1188.4,126.5 	"/>
	<polygon class="st4" points="1171.6,78.8 1129.1,36.3 1103.7,61.7 1120.9,78.8 	"/>
	<polygon class="st4" points="1037.5,78.8 1008.3,49.6 990.8,67.1 1002.6,78.8 	"/>
	<polygon class="st4" points="1266.7,72.2 1257.2,62.6 1247.6,72.2 	"/>
	<polygon class="st4" points="1178.7,77.9 1221.2,120.5 1246.6,95.1 1229.5,77.9 	"/>
	<polygon class="st2" points="881.2,50.8 859.8,72.2 902.7,72.2 	"/>
	<polygon class="st2" points="764.3,56.4 748.4,72.2 780.1,72.2 	"/>
	<polygon class="st2" points="778.6,77.9 813.4,112.8 848.2,77.9 	"/>
	<polygon class="st2" points="894.2,77.9 918.1,101.9 942,77.9 	"/>
	<polygon class="st2" points="850.7,110.7 834.7,126.6 866.6,126.6 	"/>
	<polygon class="st2" points="1009.5,106 1030.9,84.6 988.1,84.6 	"/>
	<polygon class="st2" points="1126.5,100.4 1142.4,84.6 1110.6,84.6 	"/>
	<polygon class="st2" points="1080.1,142.5 1048.9,111.3 1017.6,142.5 	"/>
	<polygon class="st2" points="948.1,142.5 916.8,111.3 885.6,142.5 	"/>
	<polygon class="st2" points="1180.6,126.5 1158.1,104 1135.6,126.5 	"/>
	<polygon class="st2" points="1112.2,78.8 1077.3,44 1042.5,78.8 	"/>
	<polygon class="st2" points="996.6,78.8 972.7,54.9 948.7,78.8 	"/>
	<polygon class="st2" points="1223.9,56.4 1208,72.2 1239.7,72.2 	"/>
	<polygon class="st2" points="1238.2,77.9 1273,112.8 1307.8,77.9 	"/>
	<polygon class="st2" points="1310.2,110.7 1294.3,126.6 1326.2,126.6 	"/>
	<polygon class="st1" points="823.3,72.2 836.3,59.3 849.2,72.2 	"/>
	<polygon class="st1" points="721.4,72.2 731,62.6 740.5,72.2 	"/>
	
		<rect x="802.5" y="41.7" transform="matrix(0.7071 -0.7071 0.7071 0.7071 202.3811 594.3646)" class="st1" width="32.2" height="22.5"/>
	
		<rect x="934.6" y="41.7" transform="matrix(0.7071 -0.7071 0.7071 0.7071 241.0612 687.7432)" class="st1" width="32.2" height="22.5"/>
	
		<rect x="705" y="51.9" transform="matrix(0.7071 -0.7071 0.7071 0.7071 167.8048 523.5602)" class="st1" width="21.7" height="14.7"/>
	
		<rect x="769.6" y="108.4" transform="matrix(0.7071 -0.7071 0.7071 0.7071 145.1216 592.2726)" class="st1" width="35.9" height="25"/>
	
		<rect x="887.9" y="98.9" transform="matrix(0.7071 -0.7071 0.7071 0.7071 187.6552 668.075)" class="st1" width="24.7" height="17.2"/>
	<polygon class="st1" points="807.5,126.6 817.2,117 826.8,126.6 	"/>
	<polygon class="st1" points="1067.5,84.6 1054.5,97.5 1041.6,84.6 	"/>
	<polygon class="st1" points="1169.4,84.6 1159.8,94.2 1150.2,84.6 	"/>
	
		<rect x="1056" y="92.7" transform="matrix(0.7071 -0.7071 0.7071 0.7071 240.5437 788.5297)" class="st1" width="32.2" height="22.5"/>
	
		<rect x="923.9" y="92.7" transform="matrix(0.7071 -0.7071 0.7071 0.7071 201.8638 695.151)" class="st1" width="32.2" height="22.5"/>
	
		<rect x="1164" y="90.2" transform="matrix(0.7071 -0.7071 0.7071 0.7071 275.1199 859.334)" class="st1" width="21.7" height="14.7"/>
	<polygon class="st1" points="1282.9,72.2 1295.8,59.3 1308.8,72.2 	"/>
	<polygon class="st1" points="1181,72.2 1190.5,62.6 1200.1,72.2 	"/>
	
		<rect x="1262.1" y="41.7" transform="matrix(0.7071 -0.7071 0.7071 0.7071 336.9932 919.3469)" class="st1" width="32.2" height="22.5"/>
	
		<rect x="1164.6" y="51.9" transform="matrix(0.7071 -0.7071 0.7071 0.7071 302.3932 848.5163)" class="st1" width="21.7" height="14.7"/>
	
		<rect x="1229.2" y="108.4" transform="matrix(0.7071 -0.7071 0.7071 0.7071 279.7245 917.2458)" class="st1" width="35.9" height="25"/>
	<polygon class="st1" points="1267.1,126.6 1276.8,117 1286.4,126.6 	"/>
	<polygon class="st3" points="1316.2,158.7 1232.2,158.7 1242.6,148.2 1326.7,148.2 	"/>
	<polygon class="st3" points="1240.3,177.8 1269.7,207.2 1299.2,177.8 1289.6,168.2 1269.7,188.1 1249.8,168.2 	"/>
	<polygon class="st3" points="885.2,148.2 978.8,148.2 989.3,158.7 895.7,158.7 	"/>
	<polygon class="st3" points="856.6,158.7 772.6,158.7 783,148.2 867.1,148.2 	"/>
	<polygon class="st3" points="780.7,177.8 810.1,207.2 839.6,177.8 830,168.2 810.1,188.1 790.2,168.2 	"/>
	<polygon class="st4" points="1226.6,164.1 1236.3,173.7 1245.9,164.1 	"/>
	<polygon class="st4" points="986.9,148.2 1025,186.3 1047.8,163.5 1032.5,148.2 	"/>
	<polygon class="st4" points="1119,148.2 1157.1,186.3 1179.9,163.5 1164.5,148.2 	"/>
	<polygon class="st4" points="901.2,164.2 928.8,191.7 944.1,176.3 932,164.2 	"/>
	<polygon class="st4" points="767,164.1 776.7,173.7 786.3,164.1 	"/>
	<polygon class="st2" points="1269.7,180 1285.7,164.1 1253.8,164.1 	"/>
	<polygon class="st2" points="1040.3,148.2 1071.5,179.4 1102.7,148.2 	"/>
	<polygon class="st2" points="1172.3,148.2 1203.6,179.4 1234.8,148.2 	"/>
	<polygon class="st2" points="939.8,164.2 962.3,186.7 984.8,164.2 	"/>
	<polygon class="st2" points="810.1,180 826.1,164.1 794.2,164.1 	"/>
	
		<rect x="1207.8" y="174.6" transform="matrix(0.7071 -0.7071 0.7071 0.7071 227.8339 916.3735)" class="st1" width="24.7" height="17.2"/>
	<polygon class="st1" points="1312.9,164.1 1303.2,173.7 1293.6,164.1 	"/>
	
		<rect x="1032.2" y="175.5" transform="matrix(0.7071 -0.7071 0.7071 0.7071 174.9683 795.949)" class="st1" width="32.2" height="22.5"/>
	
		<rect x="1164.2" y="175.5" transform="matrix(0.7071 -0.7071 0.7071 0.7071 213.6514 889.3324)" class="st1" width="32.2" height="22.5"/>
	
		<rect x="855.3" y="157.2" transform="matrix(0.7071 -0.7071 0.7071 0.7071 135.7473 667.1793)" class="st1" width="35.9" height="25"/>
	<polygon class="st1" points="853.3,164.1 843.6,173.7 834,164.1 	"/>
	<polygon class="st3" points="78.2,55.4 37.1,14.3 -3.9,55.4 10.4,69.7 37.1,43 63.9,69.7 	"/>
	<polygon class="st3" points="-39.9,132 44.1,132 33.7,142.5 -50.4,142.5 	"/>
	<polygon class="st3" points="36,112.9 6.6,83.5 -22.9,112.9 -13.3,122.4 6.6,102.5 26.5,122.4 	"/>
	<polygon class="st3" points="124.4,101.4 165.4,142.5 206.5,101.4 192.2,87.1 165.4,113.8 138.7,87.1 	"/>
	<polygon class="st3" points="253.1,98.2 282.4,127.5 311.7,98.2 302.2,88.7 282.4,108.5 262.6,88.7 	"/>
	<polygon class="st3" points="391.1,142.5 297.5,142.5 287,132 380.6,132 	"/>
	<polygon class="st3" points="166.6,43.9 196,73.3 225.4,43.9 215.9,34.3 196,54.2 176.1,34.3 	"/>
	<polygon class="st3" points="537.8,55.4 496.7,14.3 455.7,55.4 470,69.7 496.7,43 523.5,69.7 	"/>
	<polygon class="st3" points="409,58.6 379.8,29.3 350.5,58.6 360,68.1 379.8,48.3 399.6,68.1 	"/>
	<polygon class="st3" points="419.7,132 503.7,132 493.3,142.5 409.2,142.5 	"/>
	<polygon class="st3" points="495.6,112.9 466.2,83.5 436.7,112.9 446.3,122.4 466.2,102.5 486.1,122.4 	"/>
	<polygon class="st4" points="95.1,72.2 82.1,59.3 69.2,72.2 	"/>
	<polygon class="st4" points="9.2,77.9 38.4,107.2 55.9,89.7 44.1,77.9 	"/>
	<polygon class="st4" points="49.7,126.6 40,117 30.4,126.6 	"/>
	<polygon class="st4" points="107.5,84.6 120.5,97.5 133.4,84.6 	"/>
	<polygon class="st4" points="239.5,84.6 249.1,94.2 258.7,84.6 	"/>
	<polygon class="st4" points="289.4,142.5 251.3,104.4 228.5,127.1 243.8,142.5 	"/>
	<polygon class="st4" points="157.3,142.5 119.2,104.4 96.4,127.1 111.8,142.5 	"/>
	<polygon class="st4" points="375.1,126.5 347.5,99 332.2,114.3 344.3,126.5 	"/>
	<polygon class="st4" points="327.5,78.8 285,36.3 259.6,61.7 276.8,78.8 	"/>
	<polygon class="st4" points="193.4,78.8 164.2,49.6 146.7,67.1 158.5,78.8 	"/>
	<polygon class="st4" points="554.7,72.2 541.7,59.3 528.8,72.2 	"/>
	<polygon class="st4" points="422.7,72.2 413.1,62.6 403.5,72.2 	"/>
	<polygon class="st4" points="334.6,77.9 377.1,120.5 402.5,95.1 385.4,77.9 	"/>
	<polygon class="st4" points="468.8,77.9 498,107.2 515.5,89.7 503.7,77.9 	"/>
	<polygon class="st4" points="509.3,126.6 499.6,117 490,126.6 	"/>
	<polygon class="st2" points="37.1,50.8 15.7,72.2 58.6,72.2 	"/>
	<polygon class="st2" points="-65.5,77.9 -30.7,112.8 4.1,77.9 	"/>
	<polygon class="st2" points="50.1,77.9 74,101.9 97.9,77.9 	"/>
	<polygon class="st2" points="6.6,110.7 -9.4,126.6 22.5,126.6 	"/>
	<polygon class="st2" points="165.4,106 186.9,84.6 144,84.6 	"/>
	<polygon class="st2" points="282.4,100.4 298.3,84.6 266.6,84.6 	"/>
	<polygon class="st2" points="236,142.5 204.8,111.3 173.6,142.5 	"/>
	<polygon class="st2" points="104,142.5 72.7,111.3 41.5,142.5 	"/>
	<polygon class="st2" points="336.5,126.5 314,104 291.5,126.5 	"/>
	<polygon class="st2" points="268.1,78.8 233.3,44 198.5,78.8 	"/>
	<polygon class="st2" points="152.5,78.8 128.6,54.9 104.7,78.8 	"/>
	<polygon class="st2" points="496.7,50.8 475.3,72.2 518.2,72.2 	"/>
	<polygon class="st2" points="379.8,56.4 363.9,72.2 395.6,72.2 	"/>
	<polygon class="st2" points="394.1,77.9 428.9,112.8 463.7,77.9 	"/>
	<polygon class="st2" points="509.7,77.9 533.6,101.9 557.5,77.9 	"/>
	<polygon class="st2" points="466.2,110.7 450.2,126.6 482.1,126.6 	"/>
	<polygon class="st1" points="-20.8,72.2 -7.8,59.3 5.1,72.2 	"/>
	
		<rect x="-41.5" y="41.7" transform="matrix(0.7071 -0.7071 0.7071 0.7071 -44.8474 -2.4966)" class="st1" width="32.2" height="22.5"/>
	
		<rect x="90.5" y="41.7" transform="matrix(0.7071 -0.7071 0.7071 0.7071 -6.1694 90.8792)" class="st1" width="32.2" height="22.5"/>
	
		<rect x="43.9" y="98.9" transform="matrix(0.7071 -0.7071 0.7071 0.7071 -59.5605 71.2257)" class="st1" width="24.7" height="17.2"/>
	<polygon class="st1" points="-36.6,126.6 -26.9,117 -17.3,126.6 	"/>
	<polygon class="st1" points="223.4,84.6 210.4,97.5 197.5,84.6 	"/>
	<polygon class="st1" points="325.3,84.6 315.7,94.2 306.1,84.6 	"/>
	
		<rect x="211.9" y="92.7" transform="matrix(0.7071 -0.7071 0.7071 0.7071 -6.685 191.6668)" class="st1" width="32.2" height="22.5"/>
	
		<rect x="79.9" y="92.7" transform="matrix(0.7071 -0.7071 0.7071 0.7071 -45.3619 98.2916)" class="st1" width="32.2" height="22.5"/>
	
		<rect x="319.9" y="90.2" transform="matrix(0.7071 -0.7071 0.7071 0.7071 27.8939 262.4764)" class="st1" width="21.7" height="14.7"/>
	<polygon class="st1" points="438.8,72.2 451.8,59.3 464.7,72.2 	"/>
	<polygon class="st1" points="336.9,72.2 346.5,62.6 356,72.2 	"/>
	
		<rect x="418" y="41.7" transform="matrix(0.7071 -0.7071 0.7071 0.7071 89.7656 322.4862)" class="st1" width="32.2" height="22.5"/>
	
		<rect x="550.1" y="41.7" transform="matrix(0.7071 -0.7071 0.7071 0.7071 128.4356 415.8529)" class="st1" width="32.2" height="22.5"/>
	
		<rect x="320.5" y="51.9" transform="matrix(0.7071 -0.7071 0.7071 0.7071 55.1834 251.6734)" class="st1" width="21.7" height="14.7"/>
	
		<rect x="385.1" y="108.4" transform="matrix(0.7071 -0.7071 0.7071 0.7071 32.5135 320.4016)" class="st1" width="35.9" height="25"/>
	
		<rect x="503.5" y="98.9" transform="matrix(0.7071 -0.7071 0.7071 0.7071 75.0449 396.2017)" class="st1" width="24.7" height="17.2"/>
	<polygon class="st1" points="423,126.6 432.7,117 442.3,126.6 	"/>
	<polygon class="st3" points="472.1,158.7 388.1,158.7 398.6,148.2 482.6,148.2 	"/>
	<polygon class="st3" points="396.2,177.8 425.6,207.2 455.1,177.8 445.5,168.2 425.6,188.1 405.8,168.2 	"/>
	<polygon class="st3" points="307.8,189.3 266.8,148.2 225.7,189.3 240,203.6 266.8,176.9 293.5,203.6 	"/>
	<polygon class="st3" points="41.2,148.2 134.7,148.2 145.2,158.7 51.6,158.7 	"/>
	<polygon class="st3" points="12.5,158.7 -71.5,158.7 -61,148.2 23,148.2 	"/>
	<polygon class="st3" points="-63.4,177.8 -33.9,207.2 -4.5,177.8 -14,168.2 -33.9,188.1 -53.8,168.2 	"/>
	<polygon class="st4" points="382.5,164.1 392.2,173.7 401.8,164.1 	"/>
	<polygon class="st4" points="142.8,148.2 181,186.3 203.7,163.5 188.4,148.2 	"/>
	<polygon class="st4" points="274.9,148.2 313,186.3 335.8,163.5 320.4,148.2 	"/>
	<polygon class="st4" points="57.1,164.2 84.7,191.7 100,176.3 87.9,164.2 	"/>
	<polygon class="st2" points="425.6,180 441.6,164.1 409.7,164.1 	"/>
	<polygon class="st2" points="196.2,148.2 227.4,179.4 258.7,148.2 	"/>
	<polygon class="st2" points="328.2,148.2 359.5,179.4 390.7,148.2 	"/>
	<polygon class="st2" points="95.7,164.2 118.2,186.7 140.7,164.2 	"/>
	<polygon class="st2" points="-33.9,180 -18,164.1 -49.9,164.1 	"/>
	<polygon class="st1" points="468.8,164.1 459.1,173.7 449.5,164.1 	"/>
	
		<rect x="320.1" y="175.5" transform="matrix(0.7071 -0.7071 0.7071 0.7071 -33.5831 292.4638)" class="st1" width="32.2" height="22.5"/>
	
		<rect x="90.6" y="185.8" transform="matrix(0.7071 -0.7071 0.7071 0.7071 -106.837 128.2832)" class="st1" width="21.7" height="14.7"/>
	<polygon class="st1" points="9.2,164.1 -0.5,173.7 -10.1,164.1 	"/>
</g>
</svg>
