<?xml version="1.0" encoding="utf-8"?>
<!-- Generator: Adobe Illustrator 21.0.2, SVG Export Plug-In . SVG Version: 6.00 Build 0)  -->
<svg version="1.1" id="Camada_1" xmlns="http://www.w3.org/2000/svg" xmlns:xlink="http://www.w3.org/1999/xlink" x="0px" y="0px"
	 viewBox="0 0 1366 53" style="enable-background:new 0 0 1366 53;" xml:space="preserve">
<style type="text/css">
	.st0{fill-rule:evenodd;clip-rule:evenodd;fill:#476CAE;}
	.st1{fill-rule:evenodd;clip-rule:evenodd;fill:#6CA5DA;}
	.st2{fill-rule:evenodd;clip-rule:evenodd;fill:#8AC9E0;}
	.st3{fill-rule:evenodd;clip-rule:evenodd;fill:#A7D6F5;}
</style>
<g id="Group_6_">
	<polygon class="st0" points="665.4,38.8 651.7,52.5 679,52.5 665.9,39.4 	"/>
	<polygon class="st0" points="605.7,52.5 581.9,28.8 558.2,52.5 	"/>
	<polygon class="st1" points="646.6,52.5 617.4,23.2 599.9,40.7 611.7,52.5 	"/>
	<polygon class="st2" points="875.7,37.5 838.6,0.3 801.4,37.5 814.4,50.4 838.6,26.3 862.8,50.4 	"/>
	<polygon class="st2" points="759.2,40.4 732.7,13.9 706.2,40.4 714.8,49 732.7,31.1 750.6,49 	"/>
	<polygon class="st2" points="1185.1,40.4 1158.6,13.9 1132.1,40.4 1140.7,49 1158.6,31.1 1176.5,49 	"/>
	<polygon class="st1" points="891,52.7 879.3,41 867.6,52.7 	"/>
	<polygon class="st1" points="771.5,52.7 762.9,44 754.2,52.7 	"/>
	<polygon class="st1" points="1197.4,52.7 1188.7,44 1180.1,52.7 	"/>
	<polygon class="st0" points="838.6,33.3 819.2,52.7 858,52.7 	"/>
	<polygon class="st0" points="732.7,38.4 718.4,52.7 747.1,52.7 	"/>
	<g>
		<polygon class="st2" points="960.7,21.1 987.3,47.7 1014,21.1 1005.3,12.4 987.3,30.4 969.3,12.4 		"/>
		<polygon class="st1" points="1106.3,52.7 1067.9,14.2 1044.9,37.2 1060.4,52.7 		"/>
		<polygon class="st1" points="985,52.7 958.5,26.3 942.7,42.1 953.4,52.7 		"/>
		<polygon class="st0" points="1052.5,52.7 1021,21.2 989.5,52.7 		"/>
		<polygon class="st0" points="948,52.7 926.3,31.1 904.7,52.7 		"/>
	</g>
	<polygon class="st0" points="1158.6,38.4 1144.2,52.7 1172.9,52.7 	"/>
	<polygon class="st3" points="786.2,52.7 797.9,41 809.6,52.7 	"/>
	<polygon class="st3" points="693.9,52.7 702.6,44 711.3,52.7 	"/>
	
		<rect x="767.4" y="25.1" transform="matrix(0.7071 -0.7071 0.7071 0.7071 204.1239 563.2294)" class="st3" width="29.2" height="20.3"/>
	
		<rect x="886.9" y="25.1" transform="matrix(0.7071 -0.7071 0.7071 0.7071 239.124 647.7239)" class="st3" width="29.2" height="20.3"/>
	
		<rect x="679.1" y="34.3" transform="matrix(0.7071 -0.7071 0.7071 0.7071 172.8373 499.1614)" class="st3" width="19.7" height="13.3"/>
	<polygon class="st3" points="1212,52.7 1223.7,41 1235.4,52.7 	"/>
	<polygon class="st3" points="1119.8,52.7 1128.5,44 1137.1,52.7 	"/>
	
		<rect x="1193.2" y="25.1" transform="matrix(0.7071 -0.7071 0.7071 0.7071 328.8577 864.3632)" class="st3" width="29.2" height="20.3"/>
	
		<rect x="1105" y="34.3" transform="matrix(0.7071 -0.7071 0.7071 0.7071 297.5482 800.2708)" class="st3" width="19.7" height="13.3"/>
	<polygon class="st2" points="1303,37.5 1265.8,0.3 1228.6,37.5 1241.6,50.4 1265.8,26.3 1290,50.4 	"/>
	<polygon class="st1" points="1318.2,52.7 1306.5,41 1294.8,52.7 	"/>
	<polygon class="st0" points="1265.8,33.3 1246.4,52.7 1285.2,52.7 	"/>
	<polygon class="st0" points="1376.2,52.7 1354.5,31.1 1332.9,52.7 	"/>
	
		<rect x="1314.1" y="25.1" transform="matrix(0.7071 -0.7071 0.7071 0.7071 364.2609 949.8292)" class="st3" width="29.2" height="20.3"/>
	<polygon class="st2" points="527.8,37.5 490.7,0.3 453.5,37.5 466.5,50.4 490.7,26.3 514.8,50.4 	"/>
	<polygon class="st2" points="411.3,40.4 384.8,13.9 358.3,40.4 366.9,49 384.8,31.1 402.7,49 	"/>
	<polygon class="st1" points="543.1,52.7 531.4,41 519.6,52.7 	"/>
	<polygon class="st1" points="423.6,52.7 414.9,44 406.3,52.7 	"/>
	<polygon class="st0" points="490.7,33.3 471.3,52.7 510,52.7 	"/>
	<polygon class="st0" points="384.8,38.4 370.5,52.7 399.2,52.7 	"/>
	<polygon class="st2" points="101,37.5 63.8,0.3 26.6,37.5 39.6,50.5 63.8,26.3 88,50.5 	"/>
	<polygon class="st2" points="186.9,21.1 213.5,47.7 240.2,21.1 231.6,12.4 213.5,30.4 195.5,12.4 	"/>
	<polygon class="st1" points="116.2,52.7 104.5,41 92.8,52.7 	"/>
	<polygon class="st1" points="332.6,52.7 294.1,14.2 271.1,37.2 286.6,52.7 	"/>
	<polygon class="st1" points="211.2,52.7 184.7,26.3 168.9,42.1 179.6,52.7 	"/>
	<polygon class="st0" points="63.8,33.3 44.4,52.7 83.2,52.7 	"/>
	<polygon class="st0" points="278.7,52.7 247.2,21.2 215.7,52.7 	"/>
	<polygon class="st0" points="174.2,52.7 152.5,31.1 130.9,52.7 	"/>
	<polygon class="st3" points="11.4,52.7 23.1,41 34.8,52.7 	"/>
	
		<rect x="-7.4" y="25.1" transform="matrix(0.7071 -0.7071 0.7071 0.7071 -22.8075 15.3781)" class="st3" width="29.2" height="20.3"/>
	
		<rect x="112.1" y="25.1" transform="matrix(0.7071 -0.7071 0.7071 0.7071 12.1905 99.8698)" class="st3" width="29.2" height="20.3"/>
	<polygon class="st3" points="438.2,52.7 450,41 461.7,52.7 	"/>
	<polygon class="st3" points="346,52.7 354.7,44 363.3,52.7 	"/>
	
		<rect x="419.4" y="25.1" transform="matrix(0.7071 -0.7071 0.7071 0.7071 102.2234 317.218)" class="st3" width="29.2" height="20.3"/>
	
		<rect x="538.9" y="25.1" transform="matrix(0.7071 -0.7071 0.7071 0.7071 137.2134 401.7011)" class="st3" width="29.2" height="20.3"/>
	
		<rect x="331.2" y="34.3" transform="matrix(0.7071 -0.7071 0.7071 0.7071 70.9302 253.1418)" class="st3" width="19.7" height="13.3"/>
</g>
</svg>
