<?xml version="1.0" encoding="utf-8"?>
<!-- Generator: Adobe Illustrator 21.0.2, SVG Export Plug-In . SVG Version: 6.00 Build 0)  -->
<svg version="1.1" id="Camada_1" xmlns="http://www.w3.org/2000/svg" xmlns:xlink="http://www.w3.org/1999/xlink" x="0px" y="0px"
	 viewBox="0 0 1222.3 262" style="enable-background:new 0 0 1222.3 262;" xml:space="preserve">
<style type="text/css">
	.st0{fill:#FFFFFF;}
	.st1{fill:#A3CEE9;}
	.st2{fill:#4466A3;}
	.st3{fill:#84BDD2;}
	.st4{fill:#679BCA;}
</style>
<g>
	<g>
		<polygon class="st0" points="-150.4,55.2 -117.9,22.7 -99.3,41.4 -62.5,4.7 -19.4,47.9 5.8,22.7 37.3,57 67.7,23.5 86.3,42.1 
			105,23.5 117.6,36.2 121.2,32.6 141.9,53.2 169.7,25.4 197.3,52.9 215.5,34.7 229,48.3 258.5,18.8 287.6,47.9 312.7,22.7 
			331.4,41.4 368.1,4.7 411.3,47.9 436.4,22.7 455.2,41.6 462.6,34.2 478.1,49.7 499.3,28.5 532.2,61.4 549,44.6 557.4,53.1 
			575.8,34.7 589.3,48.3 618.8,18.8 647.8,47.9 673,22.7 691.6,41.4 728.4,4.7 771.5,47.9 796.7,22.7 828.2,57 858.6,23.5 
			877.2,42.1 895.9,23.5 908.5,36.2 912.1,32.6 932.8,53.2 960.6,25.4 988.2,52.9 1006.4,34.7 1019.9,48.3 1049.4,18.8 1078.5,47.9 
			1103.6,22.7 1123,42.1 1160.4,4.7 1205.2,49.5 1225.5,29.9 1296.9,78.5 1296.9,261.9 -164.4,261.9 -164.4,71.1 		"/>
	</g>
	<g id="Group_1_">
		<polygon class="st1" points="560,75.9 546.5,89.3 533.1,75.9 		"/>
		
			<rect x="548.1" y="84.3" transform="matrix(0.7071 -0.7071 0.7071 0.7071 97.5857 427.4899)" class="st1" width="33.4" height="23.3"/>
		
			<rect x="411.1" y="84.3" transform="matrix(0.7071 -0.7071 0.7071 0.7071 57.4678 330.61)" class="st1" width="33.4" height="23.3"/>
		<polygon class="st1" points="439.8,201.4 453.2,188 466.6,201.4 		"/>
		
			<rect x="418.2" y="169.7" transform="matrix(0.7071 -0.7071 0.7071 0.7071 -0.8674 360.667)" class="st1" width="33.4" height="23.3"/>
		
			<rect x="555.2" y="169.7" transform="matrix(0.7071 -0.7071 0.7071 0.7071 39.254 457.5418)" class="st1" width="33.4" height="23.3"/>
		
			<rect x="506.7" y="229.1" transform="matrix(0.7071 -0.7071 0.7071 0.7071 -16.0511 436.9995)" class="st1" width="25.6" height="17.5"/>
		<polygon class="st2" points="499.9,98.1 522.1,75.9 477.6,75.9 		"/>
		<polygon class="st2" points="573.1,136 540.7,103.6 508.3,136 		"/>
		<polygon class="st2" points="436.1,136 403.7,103.6 371.3,136 		"/>
		<polygon class="st2" points="548.3,55.8 534.1,69.9 562.4,69.9 548.8,56.3 		"/>
		<polygon class="st2" points="486.5,69.9 461.9,45.3 437.3,69.9 		"/>
		<polygon class="st2" points="499.9,179.2 477.6,201.4 522.1,201.4 		"/>
		<polygon class="st2" points="426.6,141.3 459,173.7 491.5,141.3 		"/>
		<polygon class="st2" points="563.7,141.3 596.1,173.7 628.5,141.3 		"/>
		<polygon class="st2" points="451.5,221.5 465.6,207.3 437.3,207.3 450.9,221 		"/>
		<polygon class="st2" points="513.3,207.3 537.9,231.9 562.4,207.3 		"/>
		<polygon class="st3" points="457.2,93.3 499.9,136 542.5,93.3 527.6,78.5 499.9,106.2 472.1,78.5 		"/>
		<polygon class="st3" points="542.5,183.9 499.9,141.3 457.3,183.9 472.1,198.8 499.9,171.1 527.6,198.8 		"/>
		<polygon class="st4" points="439.8,75.9 453.2,89.3 466.6,75.9 		"/>
		<polygon class="st4" points="588.9,96.4 565.3,120 581.2,136 628.5,136 		"/>
		<polygon class="st4" points="491.5,136 451.9,96.4 428.2,120 444.2,136 		"/>
		<polygon class="st4" points="528.9,69.9 498.6,39.6 480.5,57.7 492.7,69.9 		"/>
		<polygon class="st4" points="560,201.4 546.5,188 533.1,201.4 		"/>
		<polygon class="st4" points="410.8,180.9 434.5,157.2 418.5,141.3 371.3,141.3 		"/>
		<polygon class="st4" points="508.3,141.3 547.8,180.9 571.5,157.2 555.6,141.3 		"/>
		<polygon class="st4" points="470.9,207.3 501.2,237.6 519.3,219.5 507.1,207.3 		"/>
		<polygon class="st3" points="766.1,54.3 727.6,15.8 689.1,54.3 702.6,67.8 727.6,42.7 752.7,67.8 		"/>
		<polygon class="st3" points="645.5,57.4 618,29.9 590.6,57.4 599.5,66.2 618,47.7 636.6,66.2 		"/>
		<polygon class="st3" points="655.4,126.1 734.2,126.1 724.4,136 645.6,136 		"/>
		<polygon class="st3" points="726.5,108.2 699,80.7 671.4,108.2 680.3,117.2 699,98.5 717.6,117.2 		"/>
		<polygon class="st3" points="809.3,97.5 847.8,136 886.3,97.5 872.9,84 847.8,109.1 822.8,84 		"/>
		<polygon class="st3" points="930,94.4 957.4,121.9 984.9,94.4 976,85.6 957.4,104.1 938.9,85.6 		"/>
		<polygon class="st3" points="1059.2,136 971.5,136 961.7,126.1 1049.4,126.1 		"/>
		<polygon class="st3" points="848.9,43.6 876.5,71.1 904.1,43.6 895.1,34.6 876.5,53.3 857.8,34.6 		"/>
		<polygon class="st3" points="1076.1,57.4 1048.7,29.9 1021.2,57.4 1030.1,66.2 1048.7,47.7 1067.2,66.2 		"/>
		<polygon class="st3" points="1086.1,126.1 1164.8,126.1 1155,136 1076.2,136 		"/>
		<polygon class="st3" points="1157.2,108.2 1129.6,80.7 1102,108.2 1111,117.2 1129.6,98.5 1148.2,117.2 		"/>
		<polygon class="st4" points="781.9,70.1 769.8,58 757.6,70.1 		"/>
		<polygon class="st4" points="658.2,70.1 649.2,61.1 640.3,70.1 		"/>
		<polygon class="st4" points="575.7,75.5 615.6,115.3 639.4,91.5 623.3,75.5 		"/>
		<polygon class="st4" points="701.4,75.5 728.8,102.9 745.2,86.5 734.1,75.5 		"/>
		<polygon class="st4" points="739.4,121.1 730.3,112 721.3,121.1 		"/>
		<polygon class="st4" points="793.6,81.7 805.7,93.8 817.8,81.7 		"/>
		<polygon class="st4" points="917.3,81.7 926.2,90.7 935.2,81.7 		"/>
		<polygon class="st4" points="964,136 928.2,100.2 906.9,121.6 921.3,136 		"/>
		<polygon class="st4" points="840.2,136 804.5,100.2 783.2,121.6 797.6,136 		"/>
		<polygon class="st4" points="1044.3,121 1018.5,95.2 1004.1,109.6 1015.5,121 		"/>
		<polygon class="st4" points="999.7,76.3 959.9,36.5 936.1,60.3 952.1,76.3 		"/>
		<polygon class="st4" points="874,76.3 846.7,48.9 830.3,65.3 841.3,76.3 		"/>
		<polygon class="st4" points="1088.8,70.1 1079.9,61.1 1070.9,70.1 		"/>
		<polygon class="st4" points="1006.4,75.5 1046.2,115.3 1070,91.5 1054,75.5 		"/>
		<polygon class="st2" points="727.6,50 707.6,70.1 747.7,70.1 		"/>
		<polygon class="st2" points="618,55.3 603.2,70.1 632.9,70.1 		"/>
		<polygon class="st2" points="631.5,75.5 664.1,108.1 696.7,75.5 		"/>
		<polygon class="st2" points="739.7,75.5 762.2,97.9 784.6,75.5 		"/>
		<polygon class="st2" points="699,106.1 684,121.1 713.9,121.1 		"/>
		<polygon class="st2" points="847.8,101.8 867.9,81.7 827.8,81.7 		"/>
		<polygon class="st2" points="957.4,96.5 972.3,81.7 942.6,81.7 		"/>
		<polygon class="st2" points="914,136 884.7,106.7 855.4,136 		"/>
		<polygon class="st2" points="790.2,136 761,106.7 731.7,136 		"/>
		<polygon class="st2" points="1008.2,121 987,99.8 965.9,121 		"/>
		<polygon class="st2" points="944,76.3 911.4,43.7 878.8,76.3 		"/>
		<polygon class="st2" points="835.7,76.3 813.3,53.9 790.9,76.3 		"/>
		<polygon class="st2" points="1048.7,55.3 1033.8,70.1 1063.5,70.1 		"/>
		<polygon class="st2" points="1062.1,75.5 1094.7,108.1 1127.3,75.5 		"/>
		<polygon class="st2" points="1129.6,106.1 1114.7,121.1 1144.5,121.1 		"/>
		<polygon class="st1" points="673.4,70.1 685.5,58 697.6,70.1 		"/>
		<polygon class="st1" points="577.8,70.1 586.8,61.1 595.8,70.1 		"/>
		
			<rect x="653.9" y="41.5" transform="matrix(0.7071 -0.7071 0.7071 0.7071 159.1771 488.2772)" class="st1" width="30.2" height="21"/>
		
			<rect x="777.6" y="41.5" transform="matrix(0.7071 -0.7071 0.7071 0.7071 195.3926 575.7619)" class="st1" width="30.2" height="21"/>
		
			<rect x="562.5" y="51.1" transform="matrix(0.7071 -0.7071 0.7071 0.7071 126.7484 421.9747)" class="st1" width="20.4" height="13.8"/>
		
			<rect x="623" y="104.1" transform="matrix(0.7071 -0.7071 0.7071 0.7071 105.5155 486.3259)" class="st1" width="33.6" height="23.4"/>
		
			<rect x="733.9" y="95.1" transform="matrix(0.7071 -0.7071 0.7071 0.7071 145.3756 557.3087)" class="st1" width="23.1" height="16.1"/>
		<polygon class="st1" points="658.6,121.1 667.6,112 676.6,121.1 		"/>
		<polygon class="st1" points="902.1,81.7 890,93.8 877.9,81.7 		"/>
		<polygon class="st1" points="997.6,81.7 988.6,90.7 979.7,81.7 		"/>
		
			<rect x="891.4" y="89.3" transform="matrix(0.7071 -0.7071 0.7071 0.7071 194.9425 670.2087)" class="st1" width="30.2" height="21"/>
		
			<rect x="767.6" y="89.3" transform="matrix(0.7071 -0.7071 0.7071 0.7071 158.6563 582.6949)" class="st1" width="30.2" height="21"/>
		
			<rect x="992.6" y="87" transform="matrix(0.7071 -0.7071 0.7071 0.7071 227.3419 736.582)" class="st1" width="20.4" height="13.8"/>
		<polygon class="st1" points="1104,70.1 1116.1,58 1128.2,70.1 		"/>
		<polygon class="st1" points="1008.5,70.1 1017.4,61.1 1026.4,70.1 		"/>
		
			<rect x="1084.5" y="41.5" transform="matrix(0.7071 -0.7071 0.7071 0.7071 285.2801 792.77)" class="st1" width="30.2" height="21"/>
		
			<rect x="993.2" y="51" transform="matrix(0.7071 -0.7071 0.7071 0.7071 252.9334 726.4733)" class="st1" width="20.4" height="13.8"/>
		
			<rect x="1053.6" y="104.1" transform="matrix(0.7071 -0.7071 0.7071 0.7071 231.6221 790.8101)" class="st1" width="33.6" height="23.4"/>
		<polygon class="st1" points="1089.2,121.1 1098.2,112 1107.3,121.1 		"/>
		<polygon class="st3" points="344.3,151.1 265.5,151.1 275.4,141.3 354.1,141.3 		"/>
		<polygon class="st3" points="273.2,169 300.7,196.6 328.3,169 319.4,160.1 300.7,178.7 282.1,160.1 		"/>
		<polygon class="st3" points="190.4,179.8 151.9,141.3 113.4,179.8 126.8,193.2 151.9,168.2 176.9,193.2 		"/>
		<polygon class="st3" points="69.7,182.8 42.3,155.4 14.9,182.8 23.7,191.7 42.3,173.1 60.8,191.7 		"/>
		<polygon class="st3" points="-59.5,141.3 28.2,141.3 38,151.1 -49.7,151.1 		"/>
		<polygon class="st3" points="-86.3,151.1 -165.1,151.1 -155.3,141.3 -76.5,141.3 		"/>
		<polygon class="st3" points="-157.5,169 -129.9,196.6 -102.3,169 -111.2,160.1 -129.9,178.7 -148.5,160.1 		"/>
		<polygon class="st4" points="260.3,156.2 269.4,165.2 278.4,156.2 		"/>
		<polygon class="st4" points="206.2,195.6 194,183.4 181.9,195.6 		"/>
		<polygon class="st4" points="82.5,195.6 73.5,186.6 64.5,195.6 		"/>
		<polygon class="st4" points="35.7,141.3 71.5,177 92.8,155.7 78.4,141.3 		"/>
		<polygon class="st4" points="159.5,141.3 195.2,177 216.6,155.7 202.2,141.3 		"/>
		<polygon class="st4" points="-44.5,156.3 -18.7,182.1 -4.3,167.7 -15.7,156.3 		"/>
		<polygon class="st4" points="125.7,200.9 153.1,228.3 169.4,211.9 158.4,200.9 		"/>
		<polygon class="st2" points="300.7,171.1 315.7,156.2 285.8,156.2 		"/>
		<polygon class="st2" points="151.9,175.5 131.8,195.6 172,195.6 		"/>
		<polygon class="st2" points="42.3,180.7 27.4,195.6 57.1,195.6 		"/>
		<polygon class="st2" points="85.7,141.3 115,170.6 144.3,141.3 		"/>
		<polygon class="st2" points="209.5,141.3 238.7,170.6 268,141.3 		"/>
		<polygon class="st2" points="-8.4,156.3 12.7,177.4 33.8,156.3 		"/>
		<polygon class="st2" points="55.7,200.9 88.3,233.5 121,200.9 		"/>
		<polygon class="st2" points="164,200.9 186.4,223.3 208.8,200.9 		"/>
		<polygon class="st2" points="-129.9,171.1 -114.9,156.2 -144.8,156.2 		"/>
		<polygon class="st1" points="341.1,156.2 332.1,165.2 323.1,156.2 		"/>
		<polygon class="st1" points="97.6,195.6 109.7,183.4 121.9,195.6 		"/>
		<polygon class="st1" points="2.1,195.6 11.1,186.6 20.1,195.6 		"/>
		
			<rect x="78.1" y="166.9" transform="matrix(0.7071 -0.7071 0.7071 0.7071 -98.1808 117.8597)" class="st1" width="30.2" height="21"/>
		
			<rect x="201.9" y="166.9" transform="matrix(0.7071 -0.7071 0.7071 0.7071 -61.8933 205.371)" class="st1" width="30.2" height="21"/>
		
			<rect x="-13.2" y="176.5" transform="matrix(0.7071 -0.7071 0.7071 0.7071 -130.5386 51.5863)" class="st1" width="20.4" height="13.8"/>
		
			<rect x="158.2" y="220.6" transform="matrix(0.7071 -0.7071 0.7071 0.7071 -111.9432 187.0006)" class="st1" width="23.1" height="16.1"/>
		
			<rect x="-87.6" y="149.8" transform="matrix(0.7071 -0.7071 0.7071 0.7071 -134.9141 -2.7939)" class="st1" width="33.6" height="23.4"/>
		<polygon class="st1" points="-89.5,156.2 -98.5,165.2 -107.5,156.2 		"/>
		<polygon class="st3" points="1135.2,151.1 1056.4,151.1 1066.3,141.3 1145,141.3 		"/>
		<polygon class="st3" points="1064.1,169 1091.6,196.6 1119.2,169 1110.3,160.1 1091.6,178.7 1073,160.1 		"/>
		<polygon class="st3" points="981.3,179.8 942.8,141.3 904.3,179.8 917.7,193.2 942.8,168.2 967.8,193.2 		"/>
		<polygon class="st3" points="731.4,141.3 819.1,141.3 828.9,151.1 741.2,151.1 		"/>
		<polygon class="st3" points="704.6,151.1 625.8,151.1 635.6,141.3 714.4,141.3 		"/>
		<polygon class="st3" points="633.4,169 661,196.6 688.6,169 679.7,160.1 661,178.7 642.4,160.1 		"/>
		<polygon class="st4" points="1051.2,156.2 1060.3,165.2 1069.3,156.2 		"/>
		<polygon class="st4" points="826.6,141.3 862.4,177 883.7,155.7 869.3,141.3 		"/>
		<polygon class="st4" points="950.4,141.3 986.1,177 1007.5,155.7 993.1,141.3 		"/>
		<polygon class="st4" points="746.4,156.3 772.2,182.1 786.6,167.7 775.2,156.3 		"/>
		<polygon class="st4" points="658.6,201.8 631.2,174.4 614.8,190.7 625.9,201.8 		"/>
		<polygon class="st4" points="620.6,156.2 629.6,165.2 638.7,156.2 		"/>
		<polygon class="st2" points="1159.1,201.8 1126.5,169.2 1093.9,201.8 		"/>
		<polygon class="st2" points="1091.6,171.1 1106.6,156.2 1076.7,156.2 		"/>
		<polygon class="st2" points="876.6,141.3 905.9,170.6 935.2,141.3 		"/>
		<polygon class="st2" points="1000.4,141.3 1029.6,170.6 1058.9,141.3 		"/>
		<polygon class="st2" points="782.5,156.3 803.6,177.4 824.7,156.3 		"/>
		<polygon class="st2" points="632.4,227.2 652.4,207.1 612.3,207.1 		"/>
		<polygon class="st2" points="620.2,201.8 597.8,179.3 575.4,201.8 		"/>
		<polygon class="st2" points="661,171.1 676,156.2 646.1,156.2 		"/>
		
			<rect x="1033.6" y="166" transform="matrix(0.7071 -0.7071 0.7071 0.7071 183.0484 789.9755)" class="st1" width="23.1" height="16.1"/>
		<polygon class="st1" points="1132,156.2 1123,165.2 1114,156.2 		"/>
		<polygon class="st1" points="888.5,195.6 900.6,183.4 912.8,195.6 		"/>
		
			<rect x="869" y="167" transform="matrix(0.7071 -0.7071 0.7071 0.7071 133.4627 677.1077)" class="st1" width="30.2" height="21"/>
		
			<rect x="777.7" y="176.5" transform="matrix(0.7071 -0.7071 0.7071 0.7071 101.1096 610.8273)" class="st1" width="20.4" height="13.8"/>
		
			<rect x="703.2" y="149.7" transform="matrix(0.7071 -0.7071 0.7071 0.7071 96.7376 556.4343)" class="st1" width="33.6" height="23.4"/>
		<polygon class="st3" points="1198.2,54.3 1159.7,15.8 1121.2,54.3 1134.6,67.8 1159.7,42.7 1184.7,67.8 		"/>
		<polygon class="st4" points="1214,70.1 1201.8,58 1189.7,70.1 		"/>
		<polygon class="st4" points="1133.5,75.5 1160.9,102.9 1177.2,86.5 1166.2,75.5 		"/>
		<polygon class="st4" points="1171.4,121.1 1162.4,112 1153.4,121.1 		"/>
		<polygon class="st4" points="1225.6,81.7 1237.7,93.8 1249.9,81.7 		"/>
		<polygon class="st4" points="1272.3,136 1236.6,100.2 1215.2,121.6 1229.6,136 		"/>
		<polygon class="st2" points="1159.7,50 1139.6,70.1 1179.8,70.1 		"/>
		<polygon class="st2" points="1171.8,75.5 1194.2,97.9 1216.6,75.5 		"/>
		<polygon class="st2" points="1222.3,136 1193,106.7 1163.8,136 		"/>
		<polygon class="st2" points="1267.8,76.3 1245.4,53.9 1222.9,76.3 		"/>
		
			<rect x="1209.7" y="41.5" transform="matrix(0.7071 -0.7071 0.7071 0.7071 321.9673 881.2838)" class="st1" width="30.2" height="21"/>
		
			<rect x="1165.9" y="95.1" transform="matrix(0.7071 -0.7071 0.7071 0.7071 271.9533 862.8231)" class="st1" width="23.1" height="16.1"/>
		
			<rect x="1199.7" y="89.3" transform="matrix(0.7071 -0.7071 0.7071 0.7071 285.232 888.2144)" class="st1" width="30.2" height="21"/>
		<polygon class="st3" points="1163.4,141.3 1251.1,141.3 1261,151.1 1173.3,151.1 		"/>
		<polygon class="st3" points="1146.6,219.9 1174,247.3 1201.4,219.9 1192.6,211 1174,229.6 1155.5,211 		"/>
		<polygon class="st4" points="1178.4,156.3 1204.2,182.1 1218.6,167.7 1207.2,156.3 		"/>
		<polygon class="st4" points="1133.8,207.1 1142.8,216.1 1151.8,207.1 		"/>
		<polygon class="st4" points="1216.3,201.8 1176.5,161.9 1152.7,185.7 1168.7,201.8 		"/>
		<polygon class="st2" points="1214.5,156.3 1235.6,177.4 1256.7,156.3 		"/>
		<polygon class="st2" points="1174,222 1188.9,207.1 1159.2,207.1 		"/>
		
			<rect x="1209.7" y="176.5" transform="matrix(0.7071 -0.7071 0.7071 0.7071 227.6156 916.315)" class="st1" width="20.4" height="13.8"/>
		<polygon class="st1" points="1214.2,207.1 1205.2,216.1 1196.2,207.1 		"/>
		
			<rect x="1135.3" y="149.7" transform="matrix(0.7071 -0.7071 0.7071 0.7071 223.3171 861.9443)" class="st1" width="33.6" height="23.4"/>
		
			<rect x="602.9" y="166" transform="matrix(0.7071 -0.7071 0.7071 0.7071 56.875 485.4563)" class="st1" width="23.1" height="16.1"/>
		<polygon class="st1" points="701.4,156.2 692.4,165.2 683.4,156.2 		"/>
		<polygon class="st3" points="-24.8,54.3 -63.3,15.8 -101.8,54.3 -88.3,67.8 -63.3,42.7 -38.2,67.8 		"/>
		<polygon class="st3" points="-135.5,126.1 -56.7,126.1 -66.5,136 -145.3,136 		"/>
		<polygon class="st3" points="-64.4,108.2 -91.9,80.7 -119.5,108.2 -110.6,117.2 -91.9,98.5 -73.3,117.2 		"/>
		<polygon class="st3" points="18.4,97.5 56.9,136 95.4,97.5 82,84 56.9,109.1 31.9,84 		"/>
		<polygon class="st3" points="139.1,94.4 166.5,121.9 194,94.4 185.1,85.6 166.5,104.1 148,85.6 		"/>
		<polygon class="st3" points="268.3,136 180.6,136 170.8,126.1 258.5,126.1 		"/>
		<polygon class="st3" points="58,43.6 85.6,71.1 113.2,43.6 104.2,34.6 85.6,53.3 66.9,34.6 		"/>
		<polygon class="st3" points="405.8,54.3 367.4,15.8 328.9,54.3 342.3,67.8 367.4,42.7 392.4,67.8 		"/>
		<polygon class="st3" points="285.2,57.4 257.8,29.9 230.3,57.4 239.2,66.2 257.8,47.7 276.3,66.2 		"/>
		<polygon class="st3" points="295.2,126.1 373.9,126.1 364.1,136 285.3,136 		"/>
		<polygon class="st3" points="366.3,108.2 338.7,80.7 311.1,108.2 320.1,117.2 338.7,98.5 357.3,117.2 		"/>
		<polygon class="st4" points="-9,70.1 -21.1,58 -33.3,70.1 		"/>
		<polygon class="st4" points="-89.5,75.5 -62.1,102.9 -45.7,86.5 -56.8,75.5 		"/>
		<polygon class="st4" points="-51.5,121.1 -60.6,112 -69.6,121.1 		"/>
		<polygon class="st4" points="2.7,81.7 14.8,93.8 26.9,81.7 		"/>
		<polygon class="st4" points="126.4,81.7 135.3,90.7 144.3,81.7 		"/>
		<polygon class="st4" points="173.1,136 137.3,100.2 116,121.6 130.4,136 		"/>
		<polygon class="st4" points="49.3,136 13.6,100.2 -7.7,121.6 6.7,136 		"/>
		<polygon class="st4" points="253.4,121 227.6,95.2 213.2,109.6 224.6,121 		"/>
		<polygon class="st4" points="208.8,76.3 169,36.5 145.2,60.3 161.2,76.3 		"/>
		<polygon class="st4" points="83.1,76.3 55.8,48.9 39.4,65.3 50.4,76.3 		"/>
		<polygon class="st4" points="421.6,70.1 409.5,58 397.4,70.1 		"/>
		<polygon class="st4" points="297.9,70.1 289,61.1 280,70.1 		"/>
		<polygon class="st4" points="215.5,75.5 255.3,115.3 279.1,91.5 263.1,75.5 		"/>
		<polygon class="st4" points="341.2,75.5 368.5,102.9 384.9,86.5 373.9,75.5 		"/>
		<polygon class="st4" points="379.1,121.1 370.1,112 361.1,121.1 		"/>
		<polygon class="st2" points="-63.3,50 -83.3,70.1 -43.2,70.1 		"/>
		<polygon class="st2" points="-159.4,75.5 -126.8,108.1 -94.2,75.5 		"/>
		<polygon class="st2" points="-51.2,75.5 -28.7,97.9 -6.3,75.5 		"/>
		<polygon class="st2" points="-91.9,106.1 -106.9,121.1 -77,121.1 		"/>
		<polygon class="st2" points="56.9,101.8 77,81.7 36.9,81.7 		"/>
		<polygon class="st2" points="166.5,96.5 181.4,81.7 151.7,81.7 		"/>
		<polygon class="st2" points="123.1,136 93.8,106.7 64.5,136 		"/>
		<polygon class="st2" points="-0.7,136 -29.9,106.7 -59.2,136 		"/>
		<polygon class="st2" points="217.3,121 196.1,99.8 175,121 		"/>
		<polygon class="st2" points="153.1,76.3 120.5,43.7 87.9,76.3 		"/>
		<polygon class="st2" points="44.8,76.3 22.4,53.9 0,76.3 		"/>
		<polygon class="st2" points="367.4,50 347.3,70.1 387.4,70.1 		"/>
		<polygon class="st2" points="257.8,55.2 242.9,70.1 272.6,70.1 		"/>
		<polygon class="st2" points="271.2,75.5 303.8,108.1 336.4,75.5 		"/>
		<polygon class="st2" points="379.5,75.5 401.9,97.9 424.3,75.5 		"/>
		<polygon class="st2" points="338.7,106.1 323.8,121.1 353.6,121.1 		"/>
		<polygon class="st1" points="-117.5,70.1 -105.4,58 -93.3,70.1 		"/>
		
			<rect x="-137" y="41.5" transform="matrix(0.7071 -0.7071 0.7071 0.7071 -72.467 -70.971)" class="st1" width="30.2" height="21"/>
		
			<rect x="-13.3" y="41.5" transform="matrix(0.7071 -0.7071 0.7071 0.7071 -36.25 16.5113)" class="st1" width="30.2" height="21"/>
		
			<rect x="-57" y="95.1" transform="matrix(0.7071 -0.7071 0.7071 0.7071 -86.2722 -1.9282)" class="st1" width="23.1" height="16.1"/>
		<polygon class="st1" points="-132.3,121.1 -123.3,112 -114.3,121.1 		"/>
		<polygon class="st1" points="111.2,81.7 99.1,93.8 87,81.7 		"/>
		<polygon class="st1" points="206.7,81.7 197.7,90.7 188.8,81.7 		"/>
		
			<rect x="100.5" y="89.3" transform="matrix(0.7071 -0.7071 0.7071 0.7071 -36.7004 110.9595)" class="st1" width="30.2" height="21"/>
		
			<rect x="-23.3" y="89.3" transform="matrix(0.7071 -0.7071 0.7071 0.7071 -72.9881 23.4488)" class="st1" width="30.2" height="21"/>
		
			<rect x="201.7" y="87" transform="matrix(0.7071 -0.7071 0.7071 0.7071 -4.3029 177.335)" class="st1" width="20.4" height="13.8"/>
		<polygon class="st1" points="313.1,70.1 325.2,58 337.3,70.1 		"/>
		<polygon class="st1" points="217.6,70.1 226.5,61.1 235.5,70.1 		"/>
		
			<rect x="293.6" y="41.5" transform="matrix(0.7071 -0.7071 0.7071 0.7071 53.6361 233.5224)" class="st1" width="30.2" height="21"/>
		
			<rect x="417.4" y="41.5" transform="matrix(0.7071 -0.7071 0.7071 0.7071 89.9277 321.0258)" class="st1" width="30.2" height="21"/>
		
			<rect x="202.3" y="51" transform="matrix(0.7071 -0.7071 0.7071 0.7071 21.2823 167.2423)" class="st1" width="20.4" height="13.8"/>
		
			<rect x="262.7" y="104.1" transform="matrix(0.7071 -0.7071 0.7071 0.7071 -2.835995e-02 231.578)" class="st1" width="33.6" height="23.4"/>
		
			<rect x="373.6" y="95.1" transform="matrix(0.7071 -0.7071 0.7071 0.7071 39.8338 302.5569)" class="st1" width="23.1" height="16.1"/>
		<polygon class="st1" points="298.3,121.1 307.3,112 316.4,121.1 		"/>
	</g>
</g>
</svg>
