<?xml version="1.0" encoding="utf-8"?>
<!-- Generator: Adobe Illustrator 21.0.2, SVG Export Plug-In . SVG Version: 6.00 Build 0)  -->
<svg version="1.1" id="Camada_1" xmlns="http://www.w3.org/2000/svg" xmlns:xlink="http://www.w3.org/1999/xlink" x="0px" y="0px"
	 viewBox="0 0 844.1 222" style="enable-background:new 0 0 844.1 222;" xml:space="preserve">
<style type="text/css">
	.st0{fill:#FFFFFF;}
	.st1{fill:#E4CAC5;}
	.st2{fill:#BB4757;}
	.st3{fill:#D26275;}
	.st4{fill:#D38D8C;}
</style>
<g>
	<polygon class="st0" points="896.9,49.4 866.9,19.4 840.1,46.2 809.1,15.2 777.6,46.6 763.2,32.2 743.8,51.6 714.3,22.2 
		684.6,51.9 662.5,29.9 658.7,33.7 645.2,20.2 625.3,40.1 605.4,20.2 573,55.9 539.4,19.4 512.5,46.2 466.4,0.2 427.2,39.3 
		407.3,19.4 380.5,46.2 349.5,15.2 318,46.6 303.6,32.2 284,51.8 282.6,50.4 275,42.8 257.1,60.7 222,25.5 199.3,48.2 182.8,31.6 
		174.9,39.5 154.9,19.4 128,46.2 81.9,0.2 42.7,39.3 22.8,19.4 -4,46.2 -35,15.2 -66.5,46.6 -80.9,32.2 -100.3,51.6 -129.8,22.2 
		-159.5,51.9 -181.5,29.9 -185.4,33.7 -198.9,20.2 -218.8,40.1 -238.7,20.2 -270.8,53.4 -304.7,19.4 -331.6,46.2 -332.7,45.1 
		-377.7,0.2 -416.8,39.3 -436.8,19.4 -473.7,56.3 -473.7,234.3 895.4,234.3 	"/>
	<polygon class="st1" points="287.5,78.4 273.2,92.7 258.8,78.4 	"/>
	
		<rect x="274.8" y="87.3" transform="matrix(0.7071 -0.7071 0.7071 0.7071 15.1608 236.1362)" class="st1" width="35.7" height="24.9"/>
	
		<rect x="128.6" y="87.3" transform="matrix(0.7071 -0.7071 0.7071 0.7071 -27.6456 132.745)" class="st1" width="35.7" height="24.9"/>
	
		<rect x="282.5" y="178.5" transform="matrix(0.7071 -0.7071 0.7071 0.7071 -47.0237 268.2853)" class="st1" width="35.7" height="24.9"/>
	<polygon class="st2" points="223.4,102.1 247.1,78.4 199.6,78.4 	"/>
	<polygon class="st2" points="301.5,142.5 266.9,107.9 232.3,142.5 	"/>
	<polygon class="st2" points="155.3,142.5 120.7,107.9 86.1,142.5 	"/>
	<polygon class="st2" points="275,56.9 259.9,72 290.1,72 275.6,57.5 	"/>
	<polygon class="st2" points="209,72 182.8,45.8 156.6,72 	"/>
	<polygon class="st2" points="145.2,148.2 179.8,182.8 214.4,148.2 	"/>
	<polygon class="st2" points="291.4,148.2 326,182.8 360.6,148.2 	"/>
	<polygon class="st3" points="177.9,97 223.4,142.5 268.8,97 253,81.1 223.4,110.7 193.8,81.1 	"/>
	<polygon class="st4" points="159.2,78.4 173.5,92.7 187.9,78.4 	"/>
	<polygon class="st4" points="318.4,100.3 293.2,125.5 310.2,142.5 360.6,142.5 	"/>
	<polygon class="st4" points="214.4,142.5 172.2,100.3 146.9,125.5 163.9,142.5 	"/>
	<polygon class="st4" points="254.3,72 222,39.7 202.6,59 215.7,72 	"/>
	<polygon class="st4" points="128.3,190.4 153.6,165.2 136.6,148.2 86.1,148.2 	"/>
	<polygon class="st4" points="232.3,148.2 274.6,190.4 299.8,165.2 282.8,148.2 	"/>
	<polygon class="st3" points="507.5,55.4 466.4,14.3 425.4,55.4 439.7,69.7 466.4,43 493.2,69.7 	"/>
	<polygon class="st3" points="378.7,58.6 349.5,29.3 320.2,58.6 329.7,68.1 349.5,48.3 369.3,68.1 	"/>
	<polygon class="st3" points="389.4,132 473.4,132 463,142.5 378.9,142.5 	"/>
	<polygon class="st3" points="465.3,112.9 435.9,83.5 406.4,112.9 416,122.4 435.9,102.5 455.8,122.4 	"/>
	<polygon class="st3" points="553.7,101.4 594.7,142.5 635.8,101.4 621.5,87.1 594.7,113.8 568,87.1 	"/>
	<polygon class="st3" points="682.4,98.2 711.7,127.5 741,98.2 731.5,88.7 711.7,108.5 691.9,88.7 	"/>
	<polygon class="st3" points="820.3,142.5 726.8,142.5 716.3,132 809.9,132 	"/>
	<polygon class="st3" points="595.9,43.9 625.3,73.3 654.7,43.9 645.2,34.3 625.3,54.2 605.4,34.3 	"/>
	<polygon class="st3" points="838.3,58.6 809.1,29.3 779.8,58.6 789.3,68.1 809.1,48.3 828.8,68.1 	"/>
	<polygon class="st3" points="849,132 933,132 922.5,142.5 838.5,142.5 	"/>
	<polygon class="st3" points="924.9,112.9 895.4,83.5 866,112.9 875.6,122.4 895.4,102.5 915.3,122.4 	"/>
	<polygon class="st4" points="524.4,72.2 511.4,59.3 498.5,72.2 	"/>
	<polygon class="st4" points="392.3,72.2 382.8,62.6 373.2,72.2 	"/>
	<polygon class="st4" points="304.3,77.9 346.8,120.5 372.2,95.1 355.1,77.9 	"/>
	<polygon class="st4" points="438.5,77.9 467.7,107.2 485.1,89.7 473.4,77.9 	"/>
	<polygon class="st4" points="479,126.6 469.3,117 459.7,126.6 	"/>
	<polygon class="st4" points="536.8,84.6 549.7,97.5 562.7,84.6 	"/>
	<polygon class="st4" points="668.8,84.6 678.4,94.2 688,84.6 	"/>
	<polygon class="st4" points="718.7,142.5 680.5,104.4 657.8,127.1 673.1,142.5 	"/>
	<polygon class="st4" points="586.6,142.5 548.5,104.4 525.7,127.1 541.1,142.5 	"/>
	<polygon class="st4" points="804.4,126.5 776.8,99 761.5,114.3 773.6,126.5 	"/>
	<polygon class="st4" points="756.8,78.8 714.3,36.3 688.9,61.7 706.1,78.8 	"/>
	<polygon class="st4" points="622.7,78.8 593.5,49.6 576,67.1 587.8,78.8 	"/>
	<polygon class="st4" points="851.9,72.2 842.4,62.6 832.8,72.2 	"/>
	<polygon class="st4" points="763.9,77.9 806.4,120.5 831.8,95.1 814.7,77.9 	"/>
	<polygon class="st2" points="466.4,50.8 445,72.2 487.9,72.2 	"/>
	<polygon class="st2" points="349.5,56.4 333.6,72.2 365.3,72.2 	"/>
	<polygon class="st2" points="363.8,77.9 398.6,112.8 433.4,77.9 	"/>
	<polygon class="st2" points="479.4,77.9 503.3,101.9 527.2,77.9 	"/>
	<polygon class="st2" points="435.9,110.7 419.9,126.6 451.8,126.6 	"/>
	<polygon class="st2" points="594.7,106 616.1,84.6 573.3,84.6 	"/>
	<polygon class="st2" points="711.7,100.4 727.6,84.6 695.8,84.6 	"/>
	<polygon class="st2" points="665.3,142.5 634.1,111.3 602.8,142.5 	"/>
	<polygon class="st2" points="533.3,142.5 502,111.3 470.8,142.5 	"/>
	<polygon class="st2" points="765.8,126.5 743.3,104 720.8,126.5 	"/>
	<polygon class="st2" points="697.4,78.8 662.5,44 627.7,78.8 	"/>
	<polygon class="st2" points="581.8,78.8 557.9,54.9 533.9,78.8 	"/>
	<polygon class="st2" points="809.1,56.4 793.2,72.2 824.9,72.2 	"/>
	<polygon class="st2" points="823.4,77.9 858.2,112.8 893,77.9 	"/>
	<polygon class="st2" points="895.4,110.7 879.5,126.6 911.4,126.6 	"/>
	<polygon class="st1" points="408.5,72.2 421.5,59.3 434.4,72.2 	"/>
	<polygon class="st1" points="306.6,72.2 316.2,62.6 325.7,72.2 	"/>
	
		<rect x="387.7" y="41.7" transform="matrix(0.7071 -0.7071 0.7071 0.7071 80.8225 301.0698)" class="st1" width="32.2" height="22.5"/>
	
		<rect x="519.8" y="41.7" transform="matrix(0.7071 -0.7071 0.7071 0.7071 119.5309 394.4615)" class="st1" width="32.2" height="22.5"/>
	
		<rect x="290.2" y="51.9" transform="matrix(0.7071 -0.7071 0.7071 0.7071 46.2619 230.2428)" class="st1" width="21.7" height="14.7"/>
	
		<rect x="354.7" y="108.4" transform="matrix(0.7071 -0.7071 0.7071 0.7071 23.6735 298.9217)" class="st1" width="35.9" height="25"/>
	
		<rect x="473.1" y="98.9" transform="matrix(0.7071 -0.7071 0.7071 0.7071 66.1458 374.7331)" class="st1" width="24.7" height="17.2"/>
	<polygon class="st1" points="392.7,126.6 402.4,117 412,126.6 	"/>
	<polygon class="st1" points="652.7,84.6 639.7,97.5 626.8,84.6 	"/>
	<polygon class="st1" points="754.6,84.6 745,94.2 735.4,84.6 	"/>
	
		<rect x="641.2" y="92.7" transform="matrix(0.7071 -0.7071 0.7071 0.7071 119.017 495.2343)" class="st1" width="32.2" height="22.5"/>
	
		<rect x="509.1" y="92.7" transform="matrix(0.7071 -0.7071 0.7071 0.7071 80.3088 401.8427)" class="st1" width="32.2" height="22.5"/>
	
		<rect x="749.2" y="90.2" transform="matrix(0.7071 -0.7071 0.7071 0.7071 153.607 565.9905)" class="st1" width="21.7" height="14.7"/>
	<polygon class="st1" points="868.1,72.2 881,59.3 894,72.2 	"/>
	<polygon class="st1" points="766.2,72.2 775.7,62.6 785.3,72.2 	"/>
	
		<rect x="847.3" y="41.7" transform="matrix(0.7071 -0.7071 0.7071 0.7071 215.4354 626.0524)" class="st1" width="32.2" height="22.5"/>
	
		<rect x="749.8" y="51.9" transform="matrix(0.7071 -0.7071 0.7071 0.7071 180.8864 555.201)" class="st1" width="21.7" height="14.7"/>
	
		<rect x="814.3" y="108.4" transform="matrix(0.7071 -0.7071 0.7071 0.7071 158.2901 623.8951)" class="st1" width="35.9" height="25"/>
	<polygon class="st1" points="852.3,126.6 862,117 871.6,126.6 	"/>
	<polygon class="st3" points="901.4,158.7 817.4,158.7 827.8,148.2 911.9,148.2 	"/>
	<polygon class="st3" points="825.5,177.8 854.9,207.2 884.4,177.8 874.8,168.2 854.9,188.1 835,168.2 	"/>
	<polygon class="st3" points="470.4,148.2 564,148.2 574.5,158.7 480.9,158.7 	"/>
	<polygon class="st3" points="441.8,158.7 357.8,158.7 368.2,148.2 452.3,148.2 	"/>
	<polygon class="st3" points="365.9,177.8 395.3,207.2 424.8,177.8 415.2,168.2 395.3,188.1 375.4,168.2 	"/>
	<polygon class="st4" points="811.8,164.1 821.5,173.7 831.1,164.1 	"/>
	<polygon class="st4" points="572.1,148.2 610.2,186.3 633,163.5 617.7,148.2 	"/>
	<polygon class="st4" points="704.2,148.2 742.3,186.3 765.1,163.5 749.7,148.2 	"/>
	<polygon class="st4" points="486.4,164.2 514,191.7 529.3,176.3 517.2,164.2 	"/>
	<polygon class="st4" points="352.2,164.1 361.9,173.7 371.5,164.1 	"/>
	<polygon class="st2" points="854.9,180 870.9,164.1 839,164.1 	"/>
	<polygon class="st2" points="625.5,148.2 656.7,179.4 687.9,148.2 	"/>
	<polygon class="st2" points="757.5,148.2 788.8,179.4 820,148.2 	"/>
	<polygon class="st2" points="525,164.2 547.5,186.7 570,164.2 	"/>
	<polygon class="st2" points="395.3,180 411.3,164.1 379.4,164.1 	"/>
	
		<rect x="793" y="174.5" transform="matrix(0.7071 -0.7071 0.7071 0.7071 106.3698 623.0917)" class="st1" width="24.7" height="17.2"/>
	<polygon class="st1" points="898.1,164.1 888.4,173.7 878.8,164.1 	"/>
	
		<rect x="617.4" y="175.5" transform="matrix(0.7071 -0.7071 0.7071 0.7071 53.4839 502.6156)" class="st1" width="32.2" height="22.5"/>
	
		<rect x="749.4" y="175.5" transform="matrix(0.7071 -0.7071 0.7071 0.7071 92.119 595.9816)" class="st1" width="32.2" height="22.5"/>
	
		<rect x="440.4" y="157.2" transform="matrix(0.7071 -0.7071 0.7071 0.7071 14.2662 373.8399)" class="st1" width="35.9" height="25"/>
	<polygon class="st1" points="438.5,164.1 428.8,173.7 419.2,164.1 	"/>
	<polygon class="st3" points="-336.6,55.4 -377.7,14.3 -418.7,55.4 -404.4,69.7 -377.7,43 -350.9,69.7 	"/>
	<polygon class="st3" points="-454.7,132 -370.7,132 -381.1,142.5 -465.2,142.5 	"/>
	<polygon class="st3" points="-378.8,112.9 -408.2,83.5 -437.7,112.9 -428.1,122.4 -408.2,102.5 -388.3,122.4 	"/>
	<polygon class="st3" points="-290.4,101.4 -249.4,142.5 -208.3,101.4 -222.6,87.1 -249.4,113.8 -276.1,87.1 	"/>
	<polygon class="st3" points="-161.7,98.2 -132.4,127.5 -103.1,98.2 -112.6,88.7 -132.4,108.5 -152.2,88.7 	"/>
	<polygon class="st3" points="-23.7,142.5 -117.3,142.5 -127.8,132 -34.2,132 	"/>
	<polygon class="st3" points="-248.2,43.9 -218.8,73.3 -189.4,43.9 -198.9,34.3 -218.8,54.2 -238.7,34.3 	"/>
	<polygon class="st3" points="123,55.4 81.9,14.3 40.9,55.4 55.2,69.7 81.9,43 108.7,69.7 	"/>
	<polygon class="st3" points="-5.8,58.6 -35,29.3 -64.3,58.6 -54.8,68.1 -35,48.3 -15.2,68.1 	"/>
	<polygon class="st3" points="4.9,132 88.9,132 78.5,142.5 -5.6,142.5 	"/>
	<polygon class="st3" points="80.8,112.9 51.4,83.5 21.9,112.9 31.5,122.4 51.4,102.5 71.3,122.4 	"/>
	<polygon class="st4" points="-319.7,72.2 -332.7,59.3 -345.6,72.2 	"/>
	<polygon class="st4" points="-405.6,77.9 -376.4,107.2 -358.9,89.7 -370.7,77.9 	"/>
	<polygon class="st4" points="-365.1,126.6 -374.8,117 -384.4,126.6 	"/>
	<polygon class="st4" points="-307.3,84.6 -294.3,97.5 -281.4,84.6 	"/>
	<polygon class="st4" points="-175.3,84.6 -165.7,94.2 -156.1,84.6 	"/>
	<polygon class="st4" points="-125.4,142.5 -163.5,104.4 -186.3,127.1 -171,142.5 	"/>
	<polygon class="st4" points="-257.5,142.5 -295.6,104.4 -318.4,127.1 -303,142.5 	"/>
	<polygon class="st4" points="-39.7,126.5 -67.3,99 -82.6,114.3 -70.5,126.5 	"/>
	<polygon class="st4" points="-87.3,78.8 -129.8,36.3 -155.2,61.7 -138,78.8 	"/>
	<polygon class="st4" points="-221.4,78.8 -250.6,49.6 -268.1,67.1 -256.3,78.8 	"/>
	<polygon class="st4" points="139.9,72.2 126.9,59.3 114,72.2 	"/>
	<polygon class="st4" points="7.9,72.2 -1.7,62.6 -11.3,72.2 	"/>
	<polygon class="st4" points="-80.2,77.9 -37.7,120.5 -12.3,95.1 -29.4,77.9 	"/>
	<polygon class="st4" points="54,77.9 83.2,107.2 100.7,89.7 88.9,77.9 	"/>
	<polygon class="st4" points="94.5,126.6 84.8,117 75.2,126.6 	"/>
	<polygon class="st2" points="-377.7,50.8 -399.1,72.2 -356.2,72.2 	"/>
	<polygon class="st2" points="-480.3,77.9 -445.5,112.8 -410.7,77.9 	"/>
	<polygon class="st2" points="-364.7,77.9 -340.8,101.9 -316.9,77.9 	"/>
	<polygon class="st2" points="-408.2,110.7 -424.2,126.6 -392.3,126.6 	"/>
	<polygon class="st2" points="-249.4,106 -227.9,84.6 -270.8,84.6 	"/>
	<polygon class="st2" points="-132.4,100.4 -116.5,84.6 -148.2,84.6 	"/>
	<polygon class="st2" points="-178.8,142.5 -210,111.3 -241.2,142.5 	"/>
	<polygon class="st2" points="-310.8,142.5 -342.1,111.3 -373.3,142.5 	"/>
	<polygon class="st2" points="-78.3,126.5 -100.8,104 -123.3,126.5 	"/>
	<polygon class="st2" points="-146.7,78.8 -181.5,44 -216.3,78.8 	"/>
	<polygon class="st2" points="-262.3,78.8 -286.2,54.9 -310.1,78.8 	"/>
	<polygon class="st2" points="81.9,50.8 60.5,72.2 103.4,72.2 	"/>
	<polygon class="st2" points="-35,56.4 -50.9,72.2 -19.2,72.2 	"/>
	<polygon class="st2" points="-20.7,77.9 14.1,112.8 48.9,77.9 	"/>
	<polygon class="st2" points="94.9,77.9 118.8,101.9 142.7,77.9 	"/>
	<polygon class="st2" points="51.4,110.7 35.4,126.6 67.3,126.6 	"/>
	<polygon class="st1" points="-435.6,72.2 -422.6,59.3 -409.7,72.2 	"/>
	
		<rect x="-456.3" y="41.7" transform="matrix(0.7071 -0.7071 0.7071 0.7071 -166.3368 -295.7633)" class="st1" width="32.2" height="22.5"/>
	
		<rect x="-324.3" y="41.7" transform="matrix(0.7071 -0.7071 0.7071 0.7071 -127.6978 -202.4031)" class="st1" width="32.2" height="22.5"/>
	
		<rect x="-370.9" y="98.9" transform="matrix(0.7071 -0.7071 0.7071 0.7071 -181.0182 -222.0874)" class="st1" width="24.7" height="17.2"/>
	<polygon class="st1" points="-451.4,126.6 -441.7,117 -432.1,126.6 	"/>
	<polygon class="st1" points="-191.4,84.6 -204.4,97.5 -217.3,84.6 	"/>
	<polygon class="st1" points="-89.5,84.6 -99.1,94.2 -108.7,84.6 	"/>
	
		<rect x="-202.9" y="92.7" transform="matrix(0.7071 -0.7071 0.7071 0.7071 -128.2119 -101.6287)" class="st1" width="32.2" height="22.5"/>
	
		<rect x="-334.9" y="92.7" transform="matrix(0.7071 -0.7071 0.7071 0.7071 -166.851 -194.9879)" class="st1" width="32.2" height="22.5"/>
	
		<rect x="-94.9" y="90.2" transform="matrix(0.7071 -0.7071 0.7071 0.7071 -93.6249 -30.869)" class="st1" width="21.7" height="14.7"/>
	<polygon class="st1" points="24,72.2 37,59.3 49.9,72.2 	"/>
	<polygon class="st1" points="-77.9,72.2 -68.3,62.6 -58.8,72.2 	"/>
	
		<rect x="3.2" y="41.7" transform="matrix(0.7071 -0.7071 0.7071 0.7071 -31.7947 29.1909)" class="st1" width="32.2" height="22.5"/>
	
		<rect x="135.3" y="41.7" transform="matrix(0.7071 -0.7071 0.7071 0.7071 6.9191 122.572)" class="st1" width="32.2" height="22.5"/>
	
		<rect x="-94.3" y="51.9" transform="matrix(0.7071 -0.7071 0.7071 0.7071 -66.3511 -41.6428)" class="st1" width="21.7" height="14.7"/>
	
		<rect x="-29.8" y="108.4" transform="matrix(0.7071 -0.7071 0.7071 0.7071 -88.9468 27.0502)" class="st1" width="35.9" height="25"/>
	
		<rect x="88.6" y="98.9" transform="matrix(0.7071 -0.7071 0.7071 0.7071 -46.4028 102.8887)" class="st1" width="24.7" height="17.2"/>
	<polygon class="st1" points="8.2,126.6 17.9,117 27.5,126.6 	"/>
	<polygon class="st3" points="57.3,158.7 -26.7,158.7 -16.2,148.2 67.8,148.2 	"/>
	<polygon class="st3" points="-18.6,177.8 10.8,207.2 40.3,177.8 30.7,168.2 10.8,188.1 -9,168.2 	"/>
	<polygon class="st3" points="-107,189.3 -148,148.2 -189.1,189.3 -174.8,203.6 -148,176.9 -121.3,203.6 	"/>
	<polygon class="st3" points="-373.6,148.2 -280.1,148.2 -269.6,158.7 -363.2,158.7 	"/>
	<polygon class="st3" points="-402.3,158.7 -486.3,158.7 -475.8,148.2 -391.8,148.2 	"/>
	<polygon class="st3" points="-478.2,177.8 -448.7,207.2 -419.3,177.8 -428.8,168.2 -448.7,188.1 -468.6,168.2 	"/>
	<polygon class="st4" points="-32.3,164.1 -22.6,173.7 -13,164.1 	"/>
	<polygon class="st4" points="-272,148.2 -233.8,186.3 -211.1,163.5 -226.4,148.2 	"/>
	<polygon class="st4" points="-139.9,148.2 -101.8,186.3 -79,163.5 -94.4,148.2 	"/>
	<polygon class="st4" points="-357.7,164.2 -330.1,191.7 -314.8,176.3 -326.9,164.2 	"/>
	<polygon class="st2" points="10.8,180 26.8,164.1 -5.1,164.1 	"/>
	<polygon class="st2" points="-218.6,148.2 -187.4,179.4 -156.1,148.2 	"/>
	<polygon class="st2" points="-86.6,148.2 -55.3,179.4 -24.1,148.2 	"/>
	<polygon class="st2" points="-319.1,164.2 -296.6,186.7 -274.1,164.2 	"/>
	<polygon class="st2" points="-448.7,180 -432.8,164.1 -464.7,164.1 	"/>
	<polygon class="st1" points="54,164.1 44.3,173.7 34.7,164.1 	"/>
	
		<rect x="-94.7" y="175.5" transform="matrix(0.7071 -0.7071 0.7071 0.7071 -155.1075 -0.8871)" class="st1" width="32.2" height="22.5"/>
	
		<rect x="-324.2" y="185.8" transform="matrix(0.7071 -0.7071 0.7071 0.7071 -228.3361 -165.0034)" class="st1" width="21.7" height="14.7"/>
	<polygon class="st1" points="-405.6,164.1 -415.3,173.7 -424.9,164.1 	"/>
</g>
</svg>
