<?xml version="1.0" encoding="utf-8"?>
<!-- Generator: Adobe Illustrator 21.0.2, SVG Export Plug-In . SVG Version: 6.00 Build 0)  -->
<svg version="1.1" id="Camada_1" xmlns="http://www.w3.org/2000/svg" xmlns:xlink="http://www.w3.org/1999/xlink" x="0px" y="0px"
	 viewBox="0 0 1329 144" style="enable-background:new 0 0 1329 144;" xml:space="preserve">
<style type="text/css">
	.st0{fill-rule:evenodd;clip-rule:evenodd;fill:#A7D6F5;}
	.st1{fill-rule:evenodd;clip-rule:evenodd;fill:#476CAE;}
	.st2{fill-rule:evenodd;clip-rule:evenodd;fill:#8AC9E0;}
	.st3{fill-rule:evenodd;clip-rule:evenodd;fill:#6CA5DA;}
</style>
<g id="Group_4_">
	<polygon class="st0" points="672,78.8 658.3,92.5 644.7,78.8 	"/>
	
		<rect x="659.9" y="87.4" transform="matrix(0.7071 -0.7071 0.7071 0.7071 128.1015 507.6806)" class="st0" width="34" height="23.7"/>
	
		<rect x="520.7" y="87.4" transform="matrix(0.7071 -0.7071 0.7071 0.7071 87.331 409.2498)" class="st0" width="34" height="23.7"/>
	<polygon class="st1" points="610.9,101.4 633.5,78.8 588.3,78.8 	"/>
	<polygon class="st1" points="685.3,139.9 652.4,107 619.5,139.9 	"/>
	<polygon class="st1" points="546.1,139.9 513.2,107 480.3,139.9 	"/>
	<polygon class="st1" points="660.1,58.4 645.7,72.8 674.5,72.8 660.6,58.9 	"/>
	<polygon class="st1" points="597.3,72.8 572.3,47.8 547.3,72.8 	"/>
	<polygon class="st2" points="567.6,96.6 610.9,139.9 654.2,96.6 639.1,81.5 610.9,109.6 582.7,81.5 	"/>
	<polygon class="st3" points="549.8,78.8 563.5,92.5 577.1,78.8 	"/>
	<polygon class="st3" points="701.4,99.7 677.3,123.7 693.5,139.9 741.6,139.9 	"/>
	<polygon class="st3" points="602.4,139.9 562.2,99.7 538.1,123.7 554.3,139.9 	"/>
	<polygon class="st3" points="640.4,72.8 609.6,42 591.2,60.4 603.6,72.8 	"/>
	<polygon class="st2" points="881.4,57 842.3,17.9 803.2,57 816.8,70.6 842.3,45.2 867.7,70.6 	"/>
	<polygon class="st2" points="758.8,60 730.9,32.2 703.1,60 712.1,69.1 730.9,50.2 749.8,69.1 	"/>
	<polygon class="st2" points="768.9,129.9 849,129.9 839,139.9 759,139.9 	"/>
	<polygon class="st2" points="841.2,111.7 813.2,83.7 785.2,111.7 794.2,120.8 813.2,101.9 832.1,120.8 	"/>
	<polygon class="st2" points="925.3,100.8 964.4,139.9 1003.5,100.8 989.9,87.1 964.4,112.6 939,87.1 	"/>
	<polygon class="st2" points="1047.9,97.7 1075.8,125.6 1103.6,97.7 1094.6,88.7 1075.8,107.5 1056.9,88.7 	"/>
	<polygon class="st2" points="1179.2,139.9 1090.1,139.9 1080.1,129.9 1169.2,129.9 	"/>
	<polygon class="st2" points="965.5,46 993.5,74 1021.5,46 1012.5,36.9 993.5,55.9 974.6,36.9 	"/>
	<polygon class="st2" points="1196.3,60 1168.4,32.2 1140.6,60 1149.6,69.1 1168.4,50.2 1187.3,69.1 	"/>
	<polygon class="st2" points="1206.4,129.9 1286.5,129.9 1276.5,139.9 1196.5,139.9 	"/>
	<polygon class="st2" points="1278.7,111.7 1250.7,83.7 1222.7,111.7 1231.7,120.8 1250.7,101.9 1269.6,120.8 	"/>
	<polygon class="st3" points="897.4,73 885.1,60.7 872.8,73 	"/>
	<polygon class="st3" points="771.8,73 762.6,63.9 753.5,73 	"/>
	<polygon class="st3" points="688,78.4 728.4,118.9 752.6,94.7 736.3,78.4 	"/>
	<polygon class="st3" points="815.7,78.4 843.5,106.3 860.1,89.6 848.9,78.4 	"/>
	<polygon class="st3" points="854.2,124.8 845.1,115.6 835.9,124.8 	"/>
	<polygon class="st3" points="909.3,84.8 921.6,97.1 933.9,84.8 	"/>
	<polygon class="st3" points="1034.9,84.8 1044.1,93.9 1053.2,84.8 	"/>
	<polygon class="st3" points="1082.4,139.9 1046.1,103.6 1024.4,125.3 1039,139.9 	"/>
	<polygon class="st3" points="956.7,139.9 920.4,103.6 898.7,125.3 913.3,139.9 	"/>
	<polygon class="st3" points="1164,124.7 1137.8,98.5 1123.1,113.1 1134.7,124.7 	"/>
	<polygon class="st3" points="1118.7,79.3 1078.3,38.8 1054.1,63 1070.4,79.3 	"/>
	<polygon class="st3" points="991,79.3 963.2,51.5 946.6,68.1 957.8,79.3 	"/>
	<polygon class="st3" points="1209.3,73 1200.1,63.9 1191,73 	"/>
	<polygon class="st3" points="1125.5,78.4 1165.9,118.9 1190.1,94.7 1173.8,78.4 	"/>
	<polygon class="st1" points="842.3,52.6 821.9,73 862.7,73 	"/>
	<polygon class="st1" points="730.9,57.9 715.8,73 746,73 	"/>
	<polygon class="st1" points="744.6,78.4 777.7,111.6 810.9,78.4 	"/>
	<polygon class="st1" points="854.6,78.4 877.4,101.2 900.2,78.4 	"/>
	<polygon class="st1" points="813.2,109.6 798,124.8 828.4,124.8 	"/>
	<polygon class="st1" points="964.4,105.1 984.8,84.8 944,84.8 	"/>
	<polygon class="st1" points="1075.8,99.8 1090.9,84.8 1060.7,84.8 	"/>
	<polygon class="st1" points="1031.6,139.9 1001.9,110.2 972.1,139.9 	"/>
	<polygon class="st1" points="905.9,139.9 876.2,110.2 846.4,139.9 	"/>
	<polygon class="st1" points="1127.3,124.7 1105.8,103.2 1084.4,124.7 	"/>
	<polygon class="st1" points="1062.1,79.3 1029,46.2 995.8,79.3 	"/>
	<polygon class="st1" points="952.1,79.3 929.3,56.5 906.6,79.3 	"/>
	<polygon class="st1" points="1168.4,57.9 1153.3,73 1183.5,73 	"/>
	<polygon class="st1" points="1182.1,78.4 1215.2,111.6 1248.4,78.4 	"/>
	<polygon class="st1" points="1250.7,109.6 1235.5,124.8 1265.9,124.8 	"/>
	<polygon class="st0" points="787.2,73 799.5,60.7 811.8,73 	"/>
	<polygon class="st0" points="690.1,73 699.2,63.9 708.4,73 	"/>
	
		<rect x="767.4" y="43.9" transform="matrix(0.7071 -0.7071 0.7071 0.7071 190.6532 569.4534)" class="st0" width="30.7" height="21.4"/>
	
		<rect x="893.1" y="43.9" transform="matrix(0.7071 -0.7071 0.7071 0.7071 227.4737 658.343)" class="st0" width="30.7" height="21.4"/>
	
		<rect x="674.6" y="53.6" transform="matrix(0.7071 -0.7071 0.7071 0.7071 157.7392 502.0529)" class="st0" width="20.7" height="14"/>
	
		<rect x="736" y="107.5" transform="matrix(0.7071 -0.7071 0.7071 0.7071 136.1464 567.4619)" class="st0" width="34.2" height="23.8"/>
	
		<rect x="848.7" y="98.4" transform="matrix(0.7071 -0.7071 0.7071 0.7071 176.6352 639.6202)" class="st0" width="23.5" height="16.4"/>
	<polygon class="st0" points="772.1,124.8 781.3,115.6 790.5,124.8 	"/>
	<polygon class="st0" points="1019.6,84.8 1007.2,97.1 994.9,84.8 	"/>
	<polygon class="st0" points="1116.6,84.8 1107.5,93.9 1098.4,84.8 	"/>
	
		<rect x="1008.7" y="92.5" transform="matrix(0.7071 -0.7071 0.7071 0.7071 226.9811 754.2842)" class="st0" width="30.7" height="21.4"/>
	
		<rect x="883" y="92.5" transform="matrix(0.7071 -0.7071 0.7071 0.7071 190.1608 665.3946)" class="st0" width="30.7" height="21.4"/>
	
		<rect x="1111.5" y="90.1" transform="matrix(0.7071 -0.7071 0.7071 0.7071 259.8952 821.6848)" class="st0" width="20.7" height="14"/>
	<polygon class="st0" points="1224.7,73 1237,60.7 1249.3,73 	"/>
	<polygon class="st0" points="1127.6,73 1136.7,63.9 1145.9,73 	"/>
	
		<rect x="1204.9" y="43.9" transform="matrix(0.7071 -0.7071 0.7071 0.7071 318.7939 878.8126)" class="st0" width="30.7" height="21.4"/>
	
		<rect x="1112.1" y="53.6" transform="matrix(0.7071 -0.7071 0.7071 0.7071 285.8573 811.3868)" class="st0" width="20.7" height="14"/>
	
		<rect x="1173.5" y="107.5" transform="matrix(0.7071 -0.7071 0.7071 0.7071 264.2784 876.8123)" class="st0" width="34.2" height="23.8"/>
	<polygon class="st0" points="1209.6,124.8 1218.8,115.6 1228,124.8 	"/>
	<polygon class="st2" points="1320.3,57 1281.2,17.9 1242.1,57 1255.8,70.6 1281.2,45.2 1306.7,70.6 	"/>
	<polygon class="st3" points="1336.4,73 1324.1,60.7 1311.7,73 	"/>
	<polygon class="st3" points="1254.6,78.4 1282.4,106.3 1299,89.6 1287.8,78.4 	"/>
	<polygon class="st3" points="1293.2,124.8 1284,115.6 1274.8,124.8 	"/>
	<polygon class="st3" points="1348.2,84.8 1360.5,97.1 1372.9,84.8 	"/>
	<polygon class="st3" points="1395.7,139.9 1359.3,103.6 1337.7,125.3 1352.3,139.9 	"/>
	<polygon class="st1" points="1281.2,52.6 1260.8,73 1301.6,73 	"/>
	<polygon class="st1" points="1293.5,78.4 1316.3,101.2 1339.1,78.4 	"/>
	<polygon class="st1" points="1344.8,139.9 1315.1,110.2 1285.4,139.9 	"/>
	<polygon class="st1" points="1391.1,79.3 1368.3,56.5 1345.5,79.3 	"/>
	
		<rect x="1332" y="43.9" transform="matrix(0.7071 -0.7071 0.7071 0.7071 356.0385 968.7241)" class="st0" width="30.7" height="21.4"/>
	
		<rect x="1287.6" y="98.4" transform="matrix(0.7071 -0.7071 0.7071 0.7071 305.1924 949.9937)" class="st0" width="23.5" height="16.4"/>
	
		<rect x="1321.9" y="92.5" transform="matrix(0.7071 -0.7071 0.7071 0.7071 318.7231 975.7733)" class="st0" width="30.7" height="21.4"/>
	<polygon class="st2" points="77.9,57 38.8,17.9 -0.3,57 13.3,70.6 38.8,45.2 64.2,70.6 	"/>
	<polygon class="st2" points="-34.6,129.9 45.4,129.9 35.5,139.9 -44.5,139.9 	"/>
	<polygon class="st2" points="37.7,111.7 9.7,83.7 -18.3,111.7 -9.3,120.8 9.7,101.9 28.6,120.8 	"/>
	<polygon class="st2" points="121.8,100.8 160.9,139.9 200,100.8 186.4,87.1 160.9,112.6 135.5,87.1 	"/>
	<polygon class="st2" points="244.4,97.7 272.3,125.6 300.1,97.7 291.1,88.7 272.3,107.5 253.4,88.7 	"/>
	<polygon class="st2" points="375.7,139.9 286.6,139.9 276.6,129.9 365.7,129.9 	"/>
	<polygon class="st2" points="162,46 190,74 218,46 209,36.9 190,55.9 171.1,36.9 	"/>
	<polygon class="st2" points="515.4,57 476.3,17.9 437.2,57 450.8,70.6 476.3,45.2 501.7,70.6 	"/>
	<polygon class="st2" points="392.8,60 364.9,32.2 337.1,60 346.1,69.1 364.9,50.2 383.8,69.1 	"/>
	<polygon class="st2" points="402.9,129.9 482.9,129.9 473,139.9 393,139.9 	"/>
	<polygon class="st2" points="475.2,111.7 447.2,83.7 419.2,111.7 428.2,120.8 447.2,101.9 466.1,120.8 	"/>
	<polygon class="st3" points="93.9,73 81.6,60.7 69.3,73 	"/>
	<polygon class="st3" points="12.2,78.4 40,106.3 56.6,89.6 45.4,78.4 	"/>
	<polygon class="st3" points="50.7,124.8 41.5,115.6 32.4,124.8 	"/>
	<polygon class="st3" points="105.8,84.7 118.1,97.1 130.4,84.7 	"/>
	<polygon class="st3" points="231.4,84.7 240.6,93.9 249.7,84.7 	"/>
	<polygon class="st3" points="278.9,139.9 242.6,103.6 220.9,125.3 235.5,139.9 	"/>
	<polygon class="st3" points="153.2,139.9 116.9,103.6 95.2,125.3 109.8,139.9 	"/>
	<polygon class="st3" points="360.5,124.7 334.3,98.5 319.6,113.1 331.2,124.7 	"/>
	<polygon class="st3" points="315.2,79.3 274.8,38.8 250.6,63 266.9,79.3 	"/>
	<polygon class="st3" points="187.5,79.3 159.7,51.5 143.1,68.1 154.3,79.3 	"/>
	<polygon class="st3" points="531.4,73 519.1,60.7 506.8,73 	"/>
	<polygon class="st3" points="405.8,73 396.6,63.9 387.5,73 	"/>
	<polygon class="st3" points="322,78.4 362.4,118.9 386.6,94.7 370.3,78.4 	"/>
	<polygon class="st3" points="449.7,78.4 477.5,106.3 494.1,89.6 482.9,78.4 	"/>
	<polygon class="st3" points="488.2,124.8 479,115.6 469.9,124.8 	"/>
	<polygon class="st1" points="38.8,52.6 18.4,73 59.2,73 	"/>
	<polygon class="st1" points="-58.9,78.4 -25.8,111.6 7.4,78.4 	"/>
	<polygon class="st1" points="51.1,78.4 73.9,101.2 96.6,78.4 	"/>
	<polygon class="st1" points="9.7,109.6 -5.5,124.8 24.8,124.8 	"/>
	<polygon class="st1" points="160.9,105.1 181.3,84.7 140.5,84.7 	"/>
	<polygon class="st1" points="272.3,99.8 287.4,84.7 257.2,84.7 	"/>
	<polygon class="st1" points="228.1,139.9 198.4,110.2 168.6,139.9 	"/>
	<polygon class="st1" points="102.4,139.9 72.7,110.2 42.9,139.9 	"/>
	<polygon class="st1" points="323.8,124.7 302.3,103.2 280.9,124.7 	"/>
	<polygon class="st1" points="258.6,79.3 225.5,46.2 192.3,79.3 	"/>
	<polygon class="st1" points="148.6,79.3 125.8,56.5 103,79.3 	"/>
	<polygon class="st1" points="476.3,52.6 455.9,73 496.7,73 	"/>
	<polygon class="st1" points="364.9,57.9 349.8,73 380,73 	"/>
	<polygon class="st1" points="378.6,78.4 411.7,111.6 444.9,78.4 	"/>
	<polygon class="st1" points="488.6,78.4 511.4,101.2 534.1,78.4 	"/>
	<polygon class="st1" points="447.2,109.6 432,124.8 462.3,124.8 	"/>
	<polygon class="st0" points="-16.4,73 -4,60.7 8.3,73 	"/>
	
		<rect x="-36.1" y="43.9" transform="matrix(0.7071 -0.7071 0.7071 0.7071 -44.6896 1.2856)" class="st0" width="30.7" height="21.4"/>
	
		<rect x="89.6" y="43.9" transform="matrix(0.7071 -0.7071 0.7071 0.7071 -7.871 90.1725)" class="st0" width="30.7" height="21.4"/>
	
		<rect x="45.2" y="98.4" transform="matrix(0.7071 -0.7071 0.7071 0.7071 -58.6952 71.4631)" class="st0" width="23.5" height="16.4"/>
	<polygon class="st0" points="-31.4,124.8 -22.2,115.6 -13,124.8 	"/>
	<polygon class="st0" points="216,84.7 203.7,97.1 191.4,84.7 	"/>
	<polygon class="st0" points="313.1,84.7 304,93.9 294.8,84.7 	"/>
	
		<rect x="205.1" y="92.5" transform="matrix(0.7071 -0.7071 0.7071 0.7071 -8.3619 186.1147)" class="st0" width="30.7" height="21.4"/>
	
		<rect x="79.4" y="92.5" transform="matrix(0.7071 -0.7071 0.7071 0.7071 -45.1794 97.2285)" class="st0" width="30.7" height="21.4"/>
	<rect x="308" y="90.1" transform="matrix(0.7071 -0.7071 0.7071 0.7071 24.5537 253.5186)" class="st0" width="20.7" height="14"/>
	<polygon class="st0" points="421.1,73 433.5,60.7 445.8,73 	"/>
	<polygon class="st0" points="324.1,73 333.2,63.9 342.3,73 	"/>
	
		<rect x="401.4" y="43.9" transform="matrix(0.7071 -0.7071 0.7071 0.7071 83.452 310.6452)" class="st0" width="30.7" height="21.4"/>
	
		<rect x="527.1" y="43.9" transform="matrix(0.7071 -0.7071 0.7071 0.7071 120.2629 399.5233)" class="st0" width="30.7" height="21.4"/>
	
		<rect x="308.5" y="53.6" transform="matrix(0.7071 -0.7071 0.7071 0.7071 50.5323 243.2365)" class="st0" width="20.7" height="14"/>
	
		<rect x="370" y="107.5" transform="matrix(0.7071 -0.7071 0.7071 0.7071 28.9522 308.6607)" class="st0" width="34.2" height="23.8"/>
	
		<rect x="482.7" y="98.4" transform="matrix(0.7071 -0.7071 0.7071 0.7071 69.4375 380.8146)" class="st0" width="23.5" height="16.4"/>
	<polygon class="st0" points="406.1,124.8 415.3,115.6 424.5,124.8 	"/>
</g>
</svg>
