<?xml version="1.0" encoding="utf-8"?>
<!-- Generator: Adobe Illustrator 21.0.2, SVG Export Plug-In . SVG Version: 6.00 Build 0)  -->
<svg version="1.1" id="Camada_1" xmlns="http://www.w3.org/2000/svg" xmlns:xlink="http://www.w3.org/1999/xlink" x="0px" y="0px"
	 viewBox="0 0 1366 262" style="enable-background:new 0 0 1366 262;" xml:space="preserve">
<style type="text/css">
	.st0{fill-rule:evenodd;clip-rule:evenodd;fill:#FFFFFF;}
	.st1{fill-rule:evenodd;clip-rule:evenodd;fill:#A3CEE9;}
	.st2{fill-rule:evenodd;clip-rule:evenodd;fill:#4466A3;}
	.st3{fill-rule:evenodd;clip-rule:evenodd;fill:#84BDD2;}
	.st4{fill-rule:evenodd;clip-rule:evenodd;fill:#679BCA;}
</style>
<g>
	<g>
		<polygon class="st0" points="-22.3,55.2 10.2,22.7 28.8,41.4 65.6,4.7 108.7,47.9 133.9,22.7 165.4,57 195.8,23.5 214.4,42.1 
			233.1,23.5 245.7,36.2 249.3,32.6 270,53.2 297.8,25.4 325.4,52.9 343.6,34.7 357.1,48.3 386.6,18.8 415.7,47.9 440.8,22.7 
			459.5,41.4 496.2,4.7 539.4,47.9 564.5,22.7 583.3,41.6 590.7,34.2 606.2,49.7 627.4,28.5 660.3,61.4 677.1,44.6 685.5,53.1 
			703.9,34.7 717.4,48.3 746.9,18.8 775.9,47.9 801.1,22.7 819.7,41.4 856.5,4.7 899.6,47.9 924.8,22.7 956.3,57 986.7,23.5 
			1005.3,42.1 1024,23.5 1036.6,36.2 1040.2,32.6 1060.9,53.2 1088.7,25.4 1116.3,52.9 1134.5,34.7 1148,48.3 1177.5,18.8 
			1206.6,47.9 1231.7,22.7 1251.1,42.1 1288.5,4.7 1333.3,49.5 1353.6,29.9 1425,78.5 1425,261.9 -36.3,261.9 -36.3,71.1 		"/>
	</g>
	<g id="Group_1_">
		<polygon class="st1" points="688.1,75.9 674.6,89.3 661.2,75.9 		"/>
		
			<rect x="676.2" y="84.3" transform="matrix(0.7071 -0.7071 0.7071 0.7071 135.123 518.052)" class="st1" width="33.4" height="23.3"/>
		
			<rect x="539.2" y="84.3" transform="matrix(0.7071 -0.7071 0.7071 0.7071 94.9923 421.1659)" class="st1" width="33.4" height="23.3"/>
		<polygon class="st1" points="567.9,201.4 581.3,188 594.7,201.4 		"/>
		
			<rect x="546.3" y="169.7" transform="matrix(0.7071 -0.7071 0.7071 0.7071 36.7 451.2452)" class="st1" width="33.4" height="23.3"/>
		
			<rect x="683.3" y="169.7" transform="matrix(0.7071 -0.7071 0.7071 0.7071 76.8263 548.1245)" class="st1" width="33.4" height="23.3"/>
		
			<rect x="634.8" y="229.1" transform="matrix(0.7071 -0.7071 0.7071 0.7071 21.4779 527.6093)" class="st1" width="25.6" height="17.5"/>
		<polygon class="st2" points="628,98.1 650.2,75.9 605.7,75.9 		"/>
		<polygon class="st2" points="701.2,136 668.8,103.6 636.4,136 		"/>
		<polygon class="st2" points="564.2,136 531.8,103.6 499.4,136 		"/>
		<polygon class="st2" points="676.4,55.8 662.2,69.9 690.5,69.9 676.9,56.3 		"/>
		<polygon class="st2" points="614.6,69.9 590,45.3 565.4,69.9 		"/>
		<polygon class="st2" points="628,179.2 605.7,201.4 650.2,201.4 		"/>
		<polygon class="st2" points="554.7,141.3 587.1,173.7 619.6,141.3 		"/>
		<polygon class="st2" points="691.8,141.3 724.2,173.7 756.6,141.3 		"/>
		<polygon class="st2" points="579.6,221.5 593.7,207.3 565.4,207.3 579,221 		"/>
		<polygon class="st2" points="641.4,207.3 666,231.9 690.5,207.3 		"/>
		<polygon class="st3" points="585.3,93.3 628,136 670.6,93.3 655.7,78.5 628,106.2 600.2,78.5 		"/>
		<polygon class="st3" points="670.6,183.9 628,141.3 585.4,183.9 600.2,198.8 628,171.1 655.7,198.8 		"/>
		<polygon class="st4" points="567.9,75.9 581.3,89.3 594.7,75.9 		"/>
		<polygon class="st4" points="717,96.4 693.4,120 709.3,136 756.6,136 		"/>
		<polygon class="st4" points="619.6,136 580,96.4 556.3,120 572.3,136 		"/>
		<polygon class="st4" points="657,69.9 626.7,39.6 608.6,57.7 620.8,69.9 		"/>
		<polygon class="st4" points="688.1,201.4 674.6,188 661.2,201.4 		"/>
		<polygon class="st4" points="538.9,180.9 562.6,157.2 546.6,141.3 499.4,141.3 		"/>
		<polygon class="st4" points="636.4,141.3 675.9,180.9 699.6,157.2 683.7,141.3 		"/>
		<polygon class="st4" points="599,207.3 629.3,237.6 647.4,219.5 635.2,207.3 		"/>
		<polygon class="st3" points="894.2,54.3 855.7,15.8 817.2,54.3 830.7,67.8 855.7,42.7 880.8,67.8 		"/>
		<polygon class="st3" points="773.6,57.4 746.1,29.9 718.7,57.4 727.6,66.2 746.1,47.7 764.7,66.2 		"/>
		<polygon class="st3" points="783.5,126.1 862.3,126.1 852.5,136 773.7,136 		"/>
		<polygon class="st3" points="854.6,108.2 827.1,80.7 799.5,108.2 808.4,117.2 827.1,98.5 845.7,117.2 		"/>
		<polygon class="st3" points="937.4,97.5 975.9,136 1014.4,97.5 1001,84 975.9,109.1 950.9,84 		"/>
		<polygon class="st3" points="1058.1,94.4 1085.5,121.9 1113,94.4 1104.1,85.6 1085.5,104.1 1067,85.6 		"/>
		<polygon class="st3" points="1187.3,136 1099.6,136 1089.8,126.1 1177.5,126.1 		"/>
		<polygon class="st3" points="977,43.6 1004.6,71.1 1032.2,43.6 1023.2,34.6 1004.6,53.3 985.9,34.6 		"/>
		<polygon class="st3" points="1204.2,57.4 1176.8,29.9 1149.3,57.4 1158.2,66.2 1176.8,47.7 1195.3,66.2 		"/>
		<polygon class="st3" points="1214.2,126.1 1292.9,126.1 1283.1,136 1204.3,136 		"/>
		<polygon class="st3" points="1285.3,108.2 1257.7,80.7 1230.1,108.2 1239.1,117.2 1257.7,98.5 1276.3,117.2 		"/>
		<polygon class="st4" points="910,70.1 897.9,58 885.7,70.1 		"/>
		<polygon class="st4" points="786.3,70.1 777.3,61.1 768.4,70.1 		"/>
		<polygon class="st4" points="703.8,75.5 743.7,115.3 767.5,91.5 751.4,75.5 		"/>
		<polygon class="st4" points="829.5,75.5 856.9,102.9 873.3,86.5 862.2,75.5 		"/>
		<polygon class="st4" points="867.5,121.1 858.4,112 849.4,121.1 		"/>
		<polygon class="st4" points="921.7,81.7 933.8,93.8 945.9,81.7 		"/>
		<polygon class="st4" points="1045.4,81.7 1054.3,90.7 1063.3,81.7 		"/>
		<polygon class="st4" points="1092.1,136 1056.3,100.2 1035,121.6 1049.4,136 		"/>
		<polygon class="st4" points="968.3,136 932.6,100.2 911.3,121.6 925.7,136 		"/>
		<polygon class="st4" points="1172.4,121 1146.6,95.2 1132.2,109.6 1143.6,121 		"/>
		<polygon class="st4" points="1127.8,76.3 1088,36.5 1064.2,60.3 1080.2,76.3 		"/>
		<polygon class="st4" points="1002.1,76.3 974.8,48.9 958.4,65.3 969.4,76.3 		"/>
		<polygon class="st4" points="1216.9,70.1 1208,61.1 1199,70.1 		"/>
		<polygon class="st4" points="1134.5,75.5 1174.3,115.3 1198.1,91.5 1182.1,75.5 		"/>
		<polygon class="st2" points="855.7,50 835.7,70.1 875.8,70.1 		"/>
		<polygon class="st2" points="746.1,55.3 731.3,70.1 761,70.1 		"/>
		<polygon class="st2" points="759.6,75.5 792.2,108.1 824.8,75.5 		"/>
		<polygon class="st2" points="867.8,75.5 890.3,97.9 912.7,75.5 		"/>
		<polygon class="st2" points="827.1,106.1 812.1,121.1 842,121.1 		"/>
		<polygon class="st2" points="975.9,101.8 996,81.7 955.9,81.7 		"/>
		<polygon class="st2" points="1085.5,96.5 1100.4,81.7 1070.7,81.7 		"/>
		<polygon class="st2" points="1042.1,136 1012.8,106.7 983.5,136 		"/>
		<polygon class="st2" points="918.3,136 889.1,106.7 859.8,136 		"/>
		<polygon class="st2" points="1136.3,121 1115.1,99.8 1094,121 		"/>
		<polygon class="st2" points="1072.1,76.3 1039.5,43.7 1006.9,76.3 		"/>
		<polygon class="st2" points="963.8,76.3 941.4,53.9 919,76.3 		"/>
		<polygon class="st2" points="1176.8,55.3 1161.9,70.1 1191.6,70.1 		"/>
		<polygon class="st2" points="1190.2,75.5 1222.8,108.1 1255.4,75.5 		"/>
		<polygon class="st2" points="1257.7,106.1 1242.8,121.1 1272.6,121.1 		"/>
		<polygon class="st1" points="801.5,70.1 813.6,58 825.7,70.1 		"/>
		<polygon class="st1" points="705.9,70.1 714.9,61.1 723.9,70.1 		"/>
		
			<rect x="782" y="41.5" transform="matrix(0.7071 -0.7071 0.7071 0.7071 196.6927 578.855)" class="st1" width="30.2" height="21"/>
		
			<rect x="905.7" y="41.5" transform="matrix(0.7071 -0.7071 0.7071 0.7071 232.9355 666.3497)" class="st1" width="30.2" height="21"/>
		
			<rect x="690.6" y="51.1" transform="matrix(0.7071 -0.7071 0.7071 0.7071 164.2953 512.5124)" class="st1" width="20.4" height="13.8"/>
		
			<rect x="751.1" y="104.1" transform="matrix(0.7071 -0.7071 0.7071 0.7071 143.0408 576.8943)" class="st1" width="33.6" height="23.4"/>
		
			<rect x="862" y="95.1" transform="matrix(0.7071 -0.7071 0.7071 0.7071 182.8943 647.9202)" class="st1" width="23.1" height="16.1"/>
		<polygon class="st1" points="786.7,121.1 795.7,112 804.7,121.1 		"/>
		<polygon class="st1" points="1030.2,81.7 1018.1,93.8 1006,81.7 		"/>
		<polygon class="st1" points="1125.7,81.7 1116.7,90.7 1107.8,81.7 		"/>
		
			<rect x="1019.5" y="89.3" transform="matrix(0.7071 -0.7071 0.7071 0.7071 232.4505 760.785)" class="st1" width="30.2" height="21"/>
		
			<rect x="895.7" y="89.3" transform="matrix(0.7071 -0.7071 0.7071 0.7071 196.2079 673.2904)" class="st1" width="30.2" height="21"/>
		
			<rect x="1120.7" y="87" transform="matrix(0.7071 -0.7071 0.7071 0.7071 264.848 827.1277)" class="st1" width="20.4" height="13.8"/>
		<polygon class="st1" points="1232.1,70.1 1244.2,58 1256.3,70.1 		"/>
		<polygon class="st1" points="1136.6,70.1 1145.5,61.1 1154.5,70.1 		"/>
		
			<rect x="1212.6" y="41.5" transform="matrix(0.7071 -0.7071 0.7071 0.7071 322.8223 883.3589)" class="st1" width="30.2" height="21"/>
		
			<rect x="1121.3" y="51.1" transform="matrix(0.7071 -0.7071 0.7071 0.7071 290.402 816.9909)" class="st1" width="20.4" height="13.8"/>
		
			<rect x="1181.7" y="104.1" transform="matrix(0.7071 -0.7071 0.7071 0.7071 269.1618 881.3895)" class="st1" width="33.6" height="23.4"/>
		<polygon class="st1" points="1217.3,121.1 1226.3,112 1235.4,121.1 		"/>
		<polygon class="st3" points="472.4,151.1 393.6,151.1 403.5,141.3 482.2,141.3 		"/>
		<polygon class="st3" points="401.3,169 428.8,196.6 456.4,169 447.5,160.1 428.8,178.7 410.2,160.1 		"/>
		<polygon class="st3" points="318.5,179.8 280,141.3 241.5,179.8 254.9,193.2 280,168.2 305,193.2 		"/>
		<polygon class="st3" points="197.8,182.8 170.4,155.4 143,182.8 151.8,191.7 170.4,173.1 188.9,191.7 		"/>
		<polygon class="st3" points="68.6,141.3 156.3,141.3 166.1,151.1 78.4,151.1 		"/>
		<polygon class="st3" points="41.8,151.1 -37,151.1 -27.2,141.3 51.6,141.3 		"/>
		<polygon class="st3" points="-29.4,169 -1.8,196.6 25.8,169 16.9,160.1 -1.8,178.7 -20.4,160.1 		"/>
		<polygon class="st4" points="388.4,156.2 397.5,165.2 406.5,156.2 		"/>
		<polygon class="st4" points="334.3,195.6 322.1,183.4 310,195.6 		"/>
		<polygon class="st4" points="210.6,195.6 201.6,186.6 192.6,195.6 		"/>
		<polygon class="st4" points="163.8,141.3 199.6,177 220.9,155.7 206.5,141.3 		"/>
		<polygon class="st4" points="287.6,141.3 323.3,177 344.7,155.7 330.3,141.3 		"/>
		<polygon class="st4" points="83.6,156.3 109.4,182.1 123.8,167.7 112.4,156.3 		"/>
		<polygon class="st4" points="253.8,200.9 281.2,228.3 297.5,211.9 286.5,200.9 		"/>
		<polygon class="st2" points="428.8,171.1 443.8,156.2 413.9,156.2 		"/>
		<polygon class="st2" points="280,175.5 259.9,195.6 300.1,195.6 		"/>
		<polygon class="st2" points="170.4,180.7 155.5,195.6 185.2,195.6 		"/>
		<polygon class="st2" points="213.8,141.3 243.1,170.6 272.4,141.3 		"/>
		<polygon class="st2" points="337.6,141.3 366.8,170.6 396.1,141.3 		"/>
		<polygon class="st2" points="119.7,156.3 140.8,177.4 161.9,156.3 		"/>
		<polygon class="st2" points="183.8,200.9 216.4,233.5 249.1,200.9 		"/>
		<polygon class="st2" points="292.1,200.9 314.5,223.3 336.9,200.9 		"/>
		<polygon class="st2" points="-1.8,171.1 13.2,156.2 -16.7,156.2 		"/>
		<polygon class="st1" points="469.2,156.2 460.2,165.2 451.2,156.2 		"/>
		<polygon class="st1" points="225.7,195.6 237.8,183.4 250,195.6 		"/>
		<polygon class="st1" points="130.2,195.6 139.2,186.6 148.2,195.6 		"/>
		
			<rect x="206.2" y="166.9" transform="matrix(0.7071 -0.7071 0.7071 0.7071 -60.6419 208.4863)" class="st1" width="30.2" height="21"/>
		
			<rect x="330" y="166.9" transform="matrix(0.7071 -0.7071 0.7071 0.7071 -24.4016 295.978)" class="st1" width="30.2" height="21"/>
		
			<rect x="114.9" y="176.5" transform="matrix(0.7071 -0.7071 0.7071 0.7071 -93.0395 142.1432)" class="st1" width="20.4" height="13.8"/>
		
			<rect x="286.3" y="220.6" transform="matrix(0.7071 -0.7071 0.7071 0.7071 -74.43 277.559)" class="st1" width="23.1" height="16.1"/>
		
			<rect x="40.5" y="149.7" transform="matrix(0.7071 -0.7071 0.7071 0.7071 -97.3724 87.8497)" class="st1" width="33.6" height="23.4"/>
		<polygon class="st1" points="38.6,156.2 29.6,165.2 20.6,156.2 		"/>
		<polygon class="st3" points="1263.3,151.1 1184.5,151.1 1194.4,141.3 1273.1,141.3 		"/>
		<polygon class="st3" points="1192.2,169 1219.7,196.6 1247.3,169 1238.4,160.1 1219.7,178.7 1201.1,160.1 		"/>
		<polygon class="st3" points="1109.4,179.8 1070.9,141.3 1032.4,179.8 1045.8,193.2 1070.9,168.2 1095.9,193.2 		"/>
		<polygon class="st3" points="859.5,141.3 947.2,141.3 957,151.1 869.3,151.1 		"/>
		<polygon class="st3" points="832.7,151.1 753.9,151.1 763.7,141.3 842.5,141.3 		"/>
		<polygon class="st3" points="761.5,169 789.1,196.6 816.7,169 807.8,160.1 789.1,178.7 770.5,160.1 		"/>
		<polygon class="st4" points="1179.3,156.2 1188.4,165.2 1197.4,156.2 		"/>
		<polygon class="st4" points="954.7,141.3 990.5,177 1011.8,155.7 997.4,141.3 		"/>
		<polygon class="st4" points="1078.5,141.3 1114.2,177 1135.6,155.7 1121.2,141.3 		"/>
		<polygon class="st4" points="874.5,156.3 900.3,182.1 914.7,167.7 903.3,156.3 		"/>
		<polygon class="st4" points="786.7,201.8 759.3,174.4 742.9,190.7 754,201.8 		"/>
		<polygon class="st4" points="748.7,156.2 757.7,165.2 766.8,156.2 		"/>
		<polygon class="st2" points="1287.2,201.8 1254.6,169.2 1222,201.8 		"/>
		<polygon class="st2" points="1219.7,171.1 1234.7,156.2 1204.8,156.2 		"/>
		<polygon class="st2" points="1004.7,141.3 1034,170.6 1063.3,141.3 		"/>
		<polygon class="st2" points="1128.5,141.3 1157.7,170.6 1187,141.3 		"/>
		<polygon class="st2" points="910.6,156.3 931.7,177.4 952.8,156.3 		"/>
		<polygon class="st2" points="760.5,227.2 780.5,207.1 740.4,207.1 		"/>
		<polygon class="st2" points="748.3,201.8 725.9,179.3 703.5,201.8 		"/>
		<polygon class="st2" points="789.1,171.1 804.1,156.2 774.2,156.2 		"/>
		
			<rect x="1161.7" y="166" transform="matrix(0.7071 -0.7071 0.7071 0.7071 220.5332 880.563)" class="st1" width="23.1" height="16.1"/>
		<polygon class="st1" points="1260.1,156.2 1251.1,165.2 1242.1,156.2 		"/>
		<polygon class="st1" points="1016.6,195.6 1028.7,183.4 1040.9,195.6 		"/>
		
			<rect x="997.1" y="166.9" transform="matrix(0.7071 -0.7071 0.7071 0.7071 171.0065 767.7371)" class="st1" width="30.2" height="21"/>
		
			<rect x="905.8" y="176.5" transform="matrix(0.7071 -0.7071 0.7071 0.7071 138.6028 701.385)" class="st1" width="20.4" height="13.8"/>
		
			<rect x="831.4" y="149.7" transform="matrix(0.7071 -0.7071 0.7071 0.7071 134.2563 647.0809)" class="st1" width="33.6" height="23.4"/>
		<polygon class="st3" points="1326.3,54.3 1287.8,15.8 1249.3,54.3 1262.7,67.8 1287.8,42.7 1312.8,67.8 		"/>
		<polygon class="st4" points="1342.1,70.1 1329.9,58 1317.8,70.1 		"/>
		<polygon class="st4" points="1261.6,75.5 1289,102.9 1305.3,86.5 1294.3,75.5 		"/>
		<polygon class="st4" points="1299.5,121.1 1290.5,112 1281.5,121.1 		"/>
		<polygon class="st4" points="1353.7,81.7 1365.8,93.8 1378,81.7 		"/>
		<polygon class="st4" points="1400.4,136 1364.7,100.2 1343.3,121.6 1357.7,136 		"/>
		<polygon class="st2" points="1287.8,50 1267.7,70.1 1307.9,70.1 		"/>
		<polygon class="st2" points="1299.9,75.5 1322.3,97.9 1344.7,75.5 		"/>
		<polygon class="st2" points="1350.4,136 1321.1,106.7 1291.9,136 		"/>
		<polygon class="st2" points="1395.9,76.3 1373.5,53.9 1351,76.3 		"/>
		
			<rect x="1337.8" y="41.5" transform="matrix(0.7071 -0.7071 0.7071 0.7071 359.4825 971.8594)" class="st1" width="30.2" height="21"/>
		
			<rect x="1294.1" y="95.1" transform="matrix(0.7071 -0.7071 0.7071 0.7071 309.4338 953.4225)" class="st1" width="23.1" height="16.1"/>
		
			<rect x="1327.8" y="89.3" transform="matrix(0.7071 -0.7071 0.7071 0.7071 322.7525 978.7977)" class="st1" width="30.2" height="21"/>
		<polygon class="st3" points="1291.5,141.3 1379.2,141.3 1389.1,151.1 1301.4,151.1 		"/>
		<polygon class="st3" points="1274.7,219.9 1302.1,247.3 1329.5,219.9 1320.7,211 1302.1,229.6 1283.6,211 		"/>
		<polygon class="st4" points="1306.5,156.3 1332.3,182.1 1346.7,167.7 1335.3,156.3 		"/>
		<polygon class="st4" points="1261.9,207.1 1270.9,216.1 1279.9,207.1 		"/>
		<polygon class="st4" points="1344.4,201.8 1304.6,161.9 1280.8,185.7 1296.8,201.8 		"/>
		<polygon class="st2" points="1342.6,156.3 1363.7,177.4 1384.8,156.3 		"/>
		<polygon class="st2" points="1302.1,222 1317,207.1 1287.3,207.1 		"/>
		
			<rect x="1337.8" y="176.5" transform="matrix(0.7071 -0.7071 0.7071 0.7071 265.1449 1006.8899)" class="st1" width="20.4" height="13.8"/>
		<polygon class="st1" points="1342.3,207.1 1333.3,216.1 1324.3,207.1 		"/>
		
			<rect x="1337.3" y="212.4" transform="matrix(0.7071 -0.7071 0.7071 0.7071 239.549 1016.9742)" class="st1" width="20.4" height="13.8"/>
		
			<rect x="1263.5" y="149.7" transform="matrix(0.7071 -0.7071 0.7071 0.7071 260.7913 952.5787)" class="st1" width="33.6" height="23.4"/>
		
			<rect x="731" y="166" transform="matrix(0.7071 -0.7071 0.7071 0.7071 94.4073 576.0603)" class="st1" width="23.1" height="16.1"/>
		<polygon class="st1" points="829.5,156.2 820.5,165.2 811.5,156.2 		"/>
		<polygon class="st3" points="103.3,54.3 64.8,15.8 26.3,54.3 39.8,67.8 64.8,42.7 89.9,67.8 		"/>
		<polygon class="st3" points="-7.4,126.1 71.4,126.1 61.6,136 -17.2,136 		"/>
		<polygon class="st3" points="63.7,108.2 36.2,80.7 8.6,108.2 17.5,117.2 36.2,98.5 54.8,117.2 		"/>
		<polygon class="st3" points="146.5,97.5 185,136 223.5,97.5 210.1,84 185,109.1 160,84 		"/>
		<polygon class="st3" points="267.2,94.4 294.6,121.9 322.1,94.4 313.2,85.6 294.6,104.1 276.1,85.6 		"/>
		<polygon class="st3" points="396.4,136 308.7,136 298.9,126.1 386.6,126.1 		"/>
		<polygon class="st3" points="186.1,43.6 213.7,71.1 241.3,43.6 232.3,34.6 213.7,53.3 195,34.6 		"/>
		<polygon class="st3" points="533.9,54.3 495.5,15.8 457,54.3 470.4,67.8 495.5,42.7 520.5,67.8 		"/>
		<polygon class="st3" points="413.3,57.4 385.9,29.9 358.4,57.4 367.3,66.2 385.9,47.7 404.4,66.2 		"/>
		<polygon class="st3" points="423.3,126.1 502,126.1 492.2,136 413.4,136 		"/>
		<polygon class="st3" points="494.4,108.2 466.8,80.7 439.2,108.2 448.2,117.2 466.8,98.5 485.4,117.2 		"/>
		<polygon class="st4" points="119.1,70.1 107,58 94.8,70.1 		"/>
		<polygon class="st4" points="38.6,75.5 66,102.9 82.4,86.5 71.3,75.5 		"/>
		<polygon class="st4" points="76.6,121.1 67.5,112 58.5,121.1 		"/>
		<polygon class="st4" points="130.8,81.7 142.9,93.8 155,81.7 		"/>
		<polygon class="st4" points="254.5,81.7 263.4,90.7 272.4,81.7 		"/>
		<polygon class="st4" points="301.2,136 265.4,100.2 244.1,121.6 258.5,136 		"/>
		<polygon class="st4" points="177.4,136 141.7,100.2 120.4,121.6 134.8,136 		"/>
		<polygon class="st4" points="381.5,121 355.7,95.2 341.3,109.6 352.7,121 		"/>
		<polygon class="st4" points="336.9,76.3 297.1,36.5 273.3,60.3 289.3,76.3 		"/>
		<polygon class="st4" points="211.2,76.3 183.9,48.9 167.5,65.3 178.5,76.3 		"/>
		<polygon class="st4" points="549.7,70.1 537.6,58 525.5,70.1 		"/>
		<polygon class="st4" points="426,70.1 417.1,61.1 408.1,70.1 		"/>
		<polygon class="st4" points="343.6,75.5 383.4,115.3 407.2,91.5 391.2,75.5 		"/>
		<polygon class="st4" points="469.3,75.5 496.6,102.9 513,86.5 502,75.5 		"/>
		<polygon class="st4" points="507.2,121.1 498.2,112 489.2,121.1 		"/>
		<polygon class="st2" points="64.8,50 44.8,70.1 84.9,70.1 		"/>
		<polygon class="st2" points="-31.3,75.5 1.3,108.1 33.9,75.5 		"/>
		<polygon class="st2" points="76.9,75.5 99.4,97.9 121.8,75.5 		"/>
		<polygon class="st2" points="36.2,106.1 21.2,121.1 51.1,121.1 		"/>
		<polygon class="st2" points="185,101.8 205.1,81.7 165,81.7 		"/>
		<polygon class="st2" points="294.6,96.5 309.5,81.7 279.8,81.7 		"/>
		<polygon class="st2" points="251.2,136 221.9,106.7 192.6,136 		"/>
		<polygon class="st2" points="127.4,136 98.2,106.7 68.9,136 		"/>
		<polygon class="st2" points="345.4,121 324.2,99.8 303.1,121 		"/>
		<polygon class="st2" points="281.2,76.3 248.6,43.7 216,76.3 		"/>
		<polygon class="st2" points="172.9,76.3 150.5,53.9 128.1,76.3 		"/>
		<polygon class="st2" points="495.5,50 475.4,70.1 515.5,70.1 		"/>
		<polygon class="st2" points="385.9,55.2 371,70.1 400.7,70.1 		"/>
		<polygon class="st2" points="399.3,75.5 431.9,108.1 464.5,75.5 		"/>
		<polygon class="st2" points="507.6,75.5 530,97.9 552.4,75.5 		"/>
		<polygon class="st2" points="466.8,106.1 451.9,121.1 481.7,121.1 		"/>
		<polygon class="st1" points="10.6,70.1 22.7,58 34.8,70.1 		"/>
		
			<rect x="-8.9" y="41.5" transform="matrix(0.7071 -0.7071 0.7071 0.7071 -34.9563 19.6047)" class="st1" width="30.2" height="21"/>
		
			<rect x="114.8" y="41.5" transform="matrix(0.7071 -0.7071 0.7071 0.7071 1.2844 107.0964)" class="st1" width="30.2" height="21"/>
		
			<rect x="71.1" y="95.1" transform="matrix(0.7071 -0.7071 0.7071 0.7071 -48.7428 88.6801)" class="st1" width="23.1" height="16.1"/>
		<polygon class="st1" points="-4.2,121.1 4.8,112 13.8,121.1 		"/>
		<polygon class="st1" points="239.3,81.7 227.2,93.8 215.1,81.7 		"/>
		<polygon class="st1" points="334.8,81.7 325.8,90.7 316.9,81.7 		"/>
		
			<rect x="228.6" y="89.3" transform="matrix(0.7071 -0.7071 0.7071 0.7071 0.801 201.5327)" class="st1" width="30.2" height="21"/>
		
			<rect x="104.8" y="89.3" transform="matrix(0.7071 -0.7071 0.7071 0.7071 -35.4387 114.0415)" class="st1" width="30.2" height="21"/>
		
			<rect x="329.8" y="87" transform="matrix(0.7071 -0.7071 0.7071 0.7071 33.2002 267.8788)" class="st1" width="20.4" height="13.8"/>
		<polygon class="st1" points="441.2,70.1 453.3,58 465.4,70.1 		"/>
		<polygon class="st1" points="345.7,70.1 354.6,61.1 363.6,70.1 		"/>
		
			<rect x="421.7" y="41.5" transform="matrix(0.7071 -0.7071 0.7071 0.7071 91.1741 324.1088)" class="st1" width="30.2" height="21"/>
		
			<rect x="545.5" y="41.5" transform="matrix(0.7071 -0.7071 0.7071 0.7071 127.4068 411.5916)" class="st1" width="30.2" height="21"/>
		
			<rect x="330.4" y="51.1" transform="matrix(0.7071 -0.7071 0.7071 0.7071 58.7704 257.7575)" class="st1" width="20.4" height="13.8"/>
		
			<rect x="390.8" y="104.1" transform="matrix(0.7071 -0.7071 0.7071 0.7071 37.5291 322.155)" class="st1" width="33.6" height="23.4"/>
		
			<rect x="501.7" y="95.1" transform="matrix(0.7071 -0.7071 0.7071 0.7071 77.379 393.1765)" class="st1" width="23.1" height="16.1"/>
		<polygon class="st1" points="426.4,121.1 435.4,112 444.5,121.1 		"/>
	</g>
</g>
</svg>
