<?xml version="1.0" encoding="utf-8"?>
<!-- Generator: Adobe Illustrator 21.0.2, SVG Export Plug-In . SVG Version: 6.00 Build 0)  -->
<svg version="1.1" id="Camada_1" xmlns="http://www.w3.org/2000/svg" xmlns:xlink="http://www.w3.org/1999/xlink" x="0px" y="0px"
	 viewBox="0 0 803 137" style="enable-background:new 0 0 803 137;" xml:space="preserve">
<style type="text/css">
	.st0{fill-rule:evenodd;clip-rule:evenodd;fill:#E4CAC5;}
	.st1{fill-rule:evenodd;clip-rule:evenodd;fill:#BB4757;}
	.st2{fill-rule:evenodd;clip-rule:evenodd;fill:#D26275;}
	.st3{fill-rule:evenodd;clip-rule:evenodd;fill:#D38D8C;}
</style>
<g id="Group_1_">
	<polygon class="st0" points="481.6,68.6 467.9,82.3 454.3,68.6 	"/>
	
		<rect x="469.5" y="77.2" transform="matrix(0.7071 -0.7071 0.7071 0.7071 79.5531 370.0768)" class="st0" width="34" height="23.7"/>
	
		<rect x="330.3" y="77.2" transform="matrix(0.7071 -0.7071 0.7071 0.7071 38.7833 271.6467)" class="st0" width="34" height="23.7"/>
	<polygon class="st1" points="420.5,91.2 443.1,68.6 397.9,68.6 	"/>
	<polygon class="st1" points="494.9,129.7 462,96.8 429.1,129.7 	"/>
	<polygon class="st1" points="355.7,129.7 322.8,96.8 289.9,129.7 	"/>
	<polygon class="st1" points="469.7,48.2 455.3,62.6 484.1,62.6 470.2,48.7 	"/>
	<polygon class="st1" points="406.9,62.6 381.9,37.6 357,62.6 	"/>
	<polygon class="st2" points="377.2,86.4 420.5,129.7 463.8,86.4 448.7,71.3 420.5,99.4 392.3,71.3 	"/>
	<polygon class="st3" points="359.5,68.6 373.1,82.3 386.8,68.6 	"/>
	<polygon class="st3" points="511,89.5 487,113.5 503.2,129.7 551.2,129.7 	"/>
	<polygon class="st3" points="412,129.7 371.8,89.5 347.8,113.5 364,129.7 	"/>
	<polygon class="st3" points="450,62.6 419.2,31.8 400.8,50.2 413.2,62.6 	"/>
	<polygon class="st2" points="691,46.8 651.9,7.7 612.8,46.8 626.5,60.4 651.9,35 677.4,60.4 	"/>
	<polygon class="st2" points="568.4,49.8 540.6,22 512.7,49.8 521.7,58.9 540.6,40 559.4,58.9 	"/>
	<polygon class="st2" points="578.6,119.7 658.6,119.7 648.6,129.7 568.6,129.7 	"/>
	<polygon class="st2" points="650.8,101.5 622.8,73.5 594.8,101.5 603.9,110.6 622.8,91.7 641.7,110.6 	"/>
	<polygon class="st2" points="734.9,90.6 774,129.7 813.1,90.6 799.5,76.9 774,102.4 748.6,76.9 	"/>
	<polygon class="st2" points="857.5,87.5 885.4,115.4 913.3,87.5 904.2,78.5 885.4,97.3 866.6,78.5 	"/>
	<polygon class="st2" points="988.8,129.7 899.7,129.7 889.7,119.7 978.8,119.7 	"/>
	<polygon class="st2" points="775.1,35.8 803.2,63.8 831.2,35.8 822.1,26.7 803.2,45.7 784.2,26.7 	"/>
	<polygon class="st2" points="1005.9,49.8 978.1,22 950.2,49.8 959.2,58.9 978.1,40 996.9,58.9 	"/>
	<polygon class="st2" points="1016.1,119.7 1096.1,119.7 1086.1,129.7 1006.1,129.7 	"/>
	<polygon class="st2" points="1088.3,101.5 1060.3,73.5 1032.3,101.5 1041.4,110.6 1060.3,91.7 1079.2,110.6 	"/>
	<polygon class="st3" points="707.1,62.8 694.7,50.5 682.4,62.8 	"/>
	<polygon class="st3" points="581.4,62.8 572.3,53.7 563.1,62.8 	"/>
	<polygon class="st3" points="497.6,68.2 538.1,108.7 562.2,84.5 545.9,68.2 	"/>
	<polygon class="st3" points="625.3,68.2 653.1,96.1 669.7,79.4 658.5,68.2 	"/>
	<polygon class="st3" points="663.9,114.6 654.7,105.4 645.5,114.6 	"/>
	<polygon class="st3" points="718.9,74.6 731.2,86.9 743.5,74.6 	"/>
	<polygon class="st3" points="844.6,74.6 853.7,83.7 862.8,74.6 	"/>
	<polygon class="st3" points="892,129.7 855.7,93.4 834,115.1 848.7,129.7 	"/>
	<polygon class="st3" points="766.3,129.7 730,93.4 708.3,115.1 723,129.7 	"/>
	<polygon class="st3" points="973.6,114.5 947.4,88.3 932.8,102.9 944.3,114.5 	"/>
	<polygon class="st3" points="928.4,69.1 887.9,28.6 863.7,52.8 880,69.1 	"/>
	<polygon class="st3" points="800.7,69.1 772.9,41.3 756.2,57.9 767.4,69.1 	"/>
	<polygon class="st3" points="1018.9,62.8 1009.8,53.7 1000.6,62.8 	"/>
	<polygon class="st3" points="935.1,68.2 975.6,108.7 999.7,84.5 983.4,68.2 	"/>
	<polygon class="st1" points="651.9,42.4 631.5,62.8 672.3,62.8 	"/>
	<polygon class="st1" points="540.6,47.7 525.5,62.8 555.7,62.8 	"/>
	<polygon class="st1" points="554.2,68.2 587.4,101.4 620.5,68.2 	"/>
	<polygon class="st1" points="664.2,68.2 687,91 709.8,68.2 	"/>
	<polygon class="st1" points="622.8,99.4 607.6,114.6 638,114.6 	"/>
	<polygon class="st1" points="774,94.9 794.4,74.6 753.7,74.6 	"/>
	<polygon class="st1" points="885.4,89.6 900.5,74.6 870.3,74.6 	"/>
	<polygon class="st1" points="841.2,129.7 811.5,100 781.8,129.7 	"/>
	<polygon class="st1" points="715.5,129.7 685.8,100 656.1,129.7 	"/>
	<polygon class="st1" points="936.9,114.5 915.5,93 894,114.5 	"/>
	<polygon class="st1" points="871.7,69.1 838.6,36 805.5,69.1 	"/>
	<polygon class="st1" points="761.7,69.1 739,46.3 716.2,69.1 	"/>
	<polygon class="st1" points="978.1,47.7 963,62.8 993.2,62.8 	"/>
	<polygon class="st1" points="991.7,68.2 1024.9,101.4 1058,68.2 	"/>
	<polygon class="st1" points="1060.3,99.4 1045.1,114.6 1075.5,114.6 	"/>
	<polygon class="st0" points="596.8,62.8 609.1,50.5 621.4,62.8 	"/>
	<polygon class="st0" points="499.7,62.8 508.9,53.7 518,62.8 	"/>
	
		<rect x="577" y="33.7" transform="matrix(0.7071 -0.7071 0.7071 0.7071 142.1064 431.8514)" class="st0" width="30.7" height="21.4"/>
	
		<rect x="702.7" y="33.7" transform="matrix(0.7071 -0.7071 0.7071 0.7071 178.9265 520.7404)" class="st0" width="30.7" height="21.4"/>
	
		<rect x="484.2" y="43.4" transform="matrix(0.7071 -0.7071 0.7071 0.7071 109.1924 364.4509)" class="st0" width="20.7" height="14"/>
	
		<rect x="545.6" y="97.3" transform="matrix(0.7071 -0.7071 0.7071 0.7071 87.6033 429.8639)" class="st0" width="34.2" height="23.8"/>
	
		<rect x="658.3" y="88.2" transform="matrix(0.7071 -0.7071 0.7071 0.7071 128.0911 502.0211)" class="st0" width="23.5" height="16.4"/>
	<polygon class="st0" points="581.8,114.6 590.9,105.4 600.1,114.6 	"/>
	<polygon class="st0" points="829.2,74.6 816.9,86.9 804.5,74.6 	"/>
	<polygon class="st0" points="926.2,74.6 917.1,83.7 908,74.6 	"/>
	
		<rect x="818.3" y="82.3" transform="matrix(0.7071 -0.7071 0.7071 0.7071 178.4344 616.6823)" class="st0" width="30.7" height="21.4"/>
	
		<rect x="692.6" y="82.3" transform="matrix(0.7071 -0.7071 0.7071 0.7071 141.6145 527.7931)" class="st0" width="30.7" height="21.4"/>
	
		<rect x="921.1" y="79.9" transform="matrix(0.7071 -0.7071 0.7071 0.7071 211.3484 684.0827)" class="st0" width="20.7" height="14"/>
	<polygon class="st0" points="1034.3,62.8 1046.6,50.5 1058.9,62.8 	"/>
	<polygon class="st0" points="937.2,62.8 946.4,53.7 955.5,62.8 	"/>
	
		<rect x="1014.5" y="33.7" transform="matrix(0.7071 -0.7071 0.7071 0.7071 270.2472 741.2105)" class="st0" width="30.7" height="21.4"/>
	
		<rect x="921.7" y="43.4" transform="matrix(0.7071 -0.7071 0.7071 0.7071 237.3144 673.7891)" class="st0" width="20.7" height="14"/>
	
		<rect x="983.1" y="97.3" transform="matrix(0.7071 -0.7071 0.7071 0.7071 215.7353 739.2142)" class="st0" width="34.2" height="23.8"/>
	<polygon class="st0" points="1019.3,114.6 1028.4,105.4 1037.6,114.6 	"/>
	<polygon class="st2" points="1130,46.8 1090.9,7.7 1051.8,46.8 1065.4,60.4 1090.9,35 1116.3,60.4 	"/>
	<polygon class="st3" points="1146,62.8 1133.7,50.5 1121.4,62.8 	"/>
	<polygon class="st3" points="1064.2,68.2 1092.1,96.1 1108.7,79.4 1097.5,68.2 	"/>
	<polygon class="st3" points="1102.8,114.6 1093.6,105.4 1084.5,114.6 	"/>
	<polygon class="st3" points="1157.9,74.6 1170.2,86.9 1182.5,74.6 	"/>
	<polygon class="st3" points="1205.3,129.7 1169,93.4 1147.3,115.1 1161.9,129.7 	"/>
	<polygon class="st1" points="1090.9,42.4 1070.5,62.8 1111.3,62.8 	"/>
	<polygon class="st1" points="1103.2,68.2 1125.9,91 1148.7,68.2 	"/>
	<polygon class="st1" points="1154.5,129.7 1124.7,100 1095,129.7 	"/>
	<polygon class="st1" points="1200.7,69.1 1177.9,46.3 1155.1,69.1 	"/>
	
		<rect x="1141.7" y="33.7" transform="matrix(0.7071 -0.7071 0.7071 0.7071 307.4913 831.1216)" class="st0" width="30.7" height="21.4"/>
	
		<rect x="1097.3" y="88.2" transform="matrix(0.7071 -0.7071 0.7071 0.7071 256.6483 812.3946)" class="st0" width="23.5" height="16.4"/>
	
		<rect x="1131.5" y="82.3" transform="matrix(0.7071 -0.7071 0.7071 0.7071 270.1769 838.1718)" class="st0" width="30.7" height="21.4"/>
	<polygon class="st2" points="-112.5,46.8 -151.6,7.7 -190.7,46.8 -177,60.4 -151.6,35 -126.1,60.4 	"/>
	<polygon class="st2" points="-224.9,119.7 -144.9,119.7 -154.9,129.7 -234.9,129.7 	"/>
	<polygon class="st2" points="-152.7,101.5 -180.7,73.5 -208.7,101.5 -199.6,110.6 -180.7,91.7 -161.8,110.6 	"/>
	<polygon class="st2" points="-68.6,90.6 -29.5,129.7 9.6,90.6 -4,76.9 -29.5,102.4 -54.9,76.9 	"/>
	<polygon class="st2" points="54,87.5 81.9,115.4 109.8,87.5 100.7,78.5 81.9,97.3 63,78.5 	"/>
	<polygon class="st2" points="185.3,129.7 96.2,129.7 86.2,119.7 175.3,119.7 	"/>
	<polygon class="st2" points="-28.4,35.8 -0.4,63.8 27.7,35.8 18.6,26.7 -0.4,45.7 -19.3,26.7 	"/>
	<polygon class="st2" points="325,46.8 285.9,7.7 246.8,46.8 260.5,60.4 285.9,35 311.4,60.4 	"/>
	<polygon class="st2" points="202.4,49.8 174.6,22 146.7,49.8 155.7,58.9 174.6,40 193.4,58.9 	"/>
	<polygon class="st2" points="212.6,119.7 292.6,119.7 282.6,129.7 202.6,129.7 	"/>
	<polygon class="st2" points="284.8,101.5 256.8,73.5 228.8,101.5 237.9,110.6 256.8,91.7 275.7,110.6 	"/>
	<polygon class="st3" points="-96.5,62.8 -108.8,50.5 -121.1,62.8 	"/>
	<polygon class="st3" points="-178.2,68.2 -150.4,96.1 -133.8,79.4 -145,68.2 	"/>
	<polygon class="st3" points="-139.7,114.6 -148.8,105.4 -158,114.6 	"/>
	<polygon class="st3" points="-84.6,74.5 -72.3,86.9 -60,74.5 	"/>
	<polygon class="st3" points="41.1,74.5 50.2,83.7 59.3,74.5 	"/>
	<polygon class="st3" points="88.5,129.7 52.2,93.4 30.5,115.1 45.2,129.7 	"/>
	<polygon class="st3" points="-37.2,129.7 -73.5,93.4 -95.2,115.1 -80.6,129.7 	"/>
	<polygon class="st3" points="170.1,114.5 143.9,88.3 129.3,102.9 140.8,114.5 	"/>
	<polygon class="st3" points="124.8,69.1 84.4,28.6 60.2,52.8 76.5,69.1 	"/>
	<polygon class="st3" points="-2.8,69.1 -30.7,41.3 -47.3,57.9 -36.1,69.1 	"/>
	<polygon class="st3" points="341,62.8 328.7,50.5 316.4,62.8 	"/>
	<polygon class="st3" points="215.4,62.8 206.3,53.7 197.1,62.8 	"/>
	<polygon class="st3" points="131.6,68.2 172.1,108.7 196.2,84.5 179.9,68.2 	"/>
	<polygon class="st3" points="259.3,68.2 287.1,96.1 303.7,79.4 292.5,68.2 	"/>
	<polygon class="st3" points="297.8,114.6 288.7,105.4 279.5,114.6 	"/>
	<polygon class="st1" points="-151.6,42.4 -172,62.8 -131.2,62.8 	"/>
	<polygon class="st1" points="-249.3,68.2 -216.1,101.4 -183,68.2 	"/>
	<polygon class="st1" points="-139.3,68.2 -116.5,91 -93.7,68.2 	"/>
	<polygon class="st1" points="-180.7,99.4 -195.9,114.6 -165.5,114.6 	"/>
	<polygon class="st1" points="-29.5,94.9 -9.1,74.5 -49.9,74.5 	"/>
	<polygon class="st1" points="81.9,89.6 97,74.5 66.8,74.5 	"/>
	<polygon class="st1" points="37.7,129.7 8,100 -21.7,129.7 	"/>
	<polygon class="st1" points="-88,129.7 -117.7,100 -147.4,129.7 	"/>
	<polygon class="st1" points="133.4,114.5 112,93 90.5,114.5 	"/>
	<polygon class="st1" points="68.2,69.1 35.1,36 2,69.1 	"/>
	<polygon class="st1" points="-41.8,69.1 -64.5,46.3 -87.3,69.1 	"/>
	<polygon class="st1" points="285.9,42.4 265.5,62.8 306.3,62.8 	"/>
	<polygon class="st1" points="174.6,47.7 159.5,62.8 189.7,62.8 	"/>
	<polygon class="st1" points="188.2,68.2 221.4,101.4 254.5,68.2 	"/>
	<polygon class="st1" points="298.2,68.2 321,91 343.8,68.2 	"/>
	<polygon class="st1" points="256.8,99.4 241.6,114.6 272,114.6 	"/>
	<polygon class="st0" points="-206.7,62.8 -194.4,50.5 -182.1,62.8 	"/>
	
		<rect x="-226.5" y="33.7" transform="matrix(0.7071 -0.7071 0.7071 0.7071 -93.2374 -136.3175)" class="st0" width="30.7" height="21.4"/>
	
		<rect x="-100.8" y="33.7" transform="matrix(0.7071 -0.7071 0.7071 0.7071 -56.4179 -47.4297)" class="st0" width="30.7" height="21.4"/>
	
		<rect x="-145.2" y="88.2" transform="matrix(0.7071 -0.7071 0.7071 0.7071 -107.2384 -66.135)" class="st0" width="23.5" height="16.4"/>
	<polygon class="st0" points="-221.7,114.6 -212.6,105.4 -203.4,114.6 	"/>
	<polygon class="st0" points="25.7,74.5 13.4,86.9 1,74.5 	"/>
	<polygon class="st0" points="122.7,74.5 113.6,83.7 104.5,74.5 	"/>
	
		<rect x="14.8" y="82.3" transform="matrix(0.7071 -0.7071 0.7071 0.7071 -56.9077 48.5137)" class="st0" width="30.7" height="21.4"/>
	
		<rect x="-110.9" y="82.3" transform="matrix(0.7071 -0.7071 0.7071 0.7071 -93.7253 -40.3726)" class="st0" width="30.7" height="21.4"/>
	
		<rect x="117.6" y="79.9" transform="matrix(0.7071 -0.7071 0.7071 0.7071 -23.9938 115.9157)" class="st0" width="20.7" height="14"/>
	<polygon class="st0" points="230.8,62.8 243.1,50.5 255.4,62.8 	"/>
	<polygon class="st0" points="133.7,62.8 142.9,53.7 152,62.8 	"/>
	
		<rect x="211" y="33.7" transform="matrix(0.7071 -0.7071 0.7071 0.7071 34.905 173.0429)" class="st0" width="30.7" height="21.4"/>
	
		<rect x="336.7" y="33.7" transform="matrix(0.7071 -0.7071 0.7071 0.7071 71.7187 261.924)" class="st0" width="30.7" height="21.4"/>
	
		<rect x="118.2" y="43.4" transform="matrix(0.7071 -0.7071 0.7071 0.7071 1.9892 105.6385)" class="st0" width="20.7" height="14"/>
	
		<rect x="179.6" y="97.3" transform="matrix(0.7071 -0.7071 0.7071 0.7071 -19.591 171.0626)" class="st0" width="34.2" height="23.8"/>
	
		<rect x="292.3" y="88.2" transform="matrix(0.7071 -0.7071 0.7071 0.7071 20.8941 243.2162)" class="st0" width="23.5" height="16.4"/>
	<polygon class="st0" points="215.8,114.6 224.9,105.4 234.1,114.6 	"/>
</g>
</svg>
